<?xml version="1.0" encoding="utf-8" standalone="no"?>
<!DOCTYPE svg PUBLIC "-//W3C//DTD SVG 1.1//EN"
  "http://www.w3.org/Graphics/SVG/1.1/DTD/svg11.dtd">
<!-- Created with matplotlib (https://matplotlib.org/) -->
<svg height="360pt" version="1.1" viewBox="0 0 612 360" width="612pt" xmlns="http://www.w3.org/2000/svg" xmlns:xlink="http://www.w3.org/1999/xlink">
 <defs>
  <style type="text/css">
*{stroke-linecap:butt;stroke-linejoin:round;}
  </style>
 </defs>
 <g id="figure_1">
  <g id="patch_1">
   <path d="M 0 360 
L 612 360 
L 612 0 
L 0 0 
z
" style="fill:#ffffff;"/>
  </g>
  <g id="axes_1">
   <g id="patch_2">
    <path d="M 31.104928 298.856634 
L 247.283174 298.856634 
L 247.283174 82.678388 
L 31.104928 82.678388 
z
" style="fill:#ffffff;"/>
   </g>
   <g id="PathCollection_1">
    <defs>
     <path d="M 0 3 
C 0.795609 3 1.55874 2.683901 2.12132 2.12132 
C 2.683901 1.55874 3 0.795609 3 0 
C 3 -0.795609 2.683901 -1.55874 2.12132 -2.12132 
C 1.55874 -2.683901 0.795609 -3 0 -3 
C -0.795609 -3 -1.55874 -2.683901 -2.12132 -2.12132 
C -2.683901 -1.55874 -3 -0.795609 -3 0 
C -3 0.795609 -2.683901 1.55874 -2.12132 2.12132 
C -1.55874 2.683901 -0.795609 3 0 3 
z
" id="m98550959e3" style="stroke:#008000;"/>
    </defs>
    <g clip-path="url(#p2919fcff64)">
     <use style="fill:#008000;stroke:#008000;" x="139.194051" xlink:href="#m98550959e3" y="97.090271"/>
     <use style="fill:#008000;stroke:#008000;" x="47.619438" xlink:href="#m98550959e3" y="247.28063"/>
     <use style="fill:#008000;stroke:#008000;" x="230.768664" xlink:href="#m98550959e3" y="247.28063"/>
    </g>
   </g>
   <g id="PathCollection_2">
    <defs>
     <path d="M 0 3 
C 0.795609 3 1.55874 2.683901 2.12132 2.12132 
C 2.683901 1.55874 3 0.795609 3 0 
C 3 -0.795609 2.683901 -1.55874 2.12132 -2.12132 
C 1.55874 -2.683901 0.795609 -3 0 -3 
C -0.795609 -3 -1.55874 -2.683901 -2.12132 -2.12132 
C -2.683901 -1.55874 -3 -0.795609 -3 0 
C -3 0.795609 -2.683901 1.55874 -2.12132 2.12132 
C -1.55874 2.683901 -0.795609 3 0 3 
z
" id="maf26a07528" style="stroke:#bfbf00;"/>
    </defs>
    <g clip-path="url(#p2919fcff64)">
     <use style="fill:#bfbf00;stroke:#bfbf00;" x="139.194051" xlink:href="#maf26a07528" y="97.090271"/>
     <use style="fill:#bfbf00;stroke:#bfbf00;" x="47.619438" xlink:href="#maf26a07528" y="247.28063"/>
     <use style="fill:#bfbf00;stroke:#bfbf00;" x="230.768664" xlink:href="#maf26a07528" y="247.28063"/>
     <use style="fill:#bfbf00;stroke:#bfbf00;" x="217.89944" xlink:href="#maf26a07528" y="169.370015"/>
     <use style="fill:#bfbf00;stroke:#bfbf00;" x="60.488661" xlink:href="#maf26a07528" y="169.370015"/>
     <use style="fill:#bfbf00;stroke:#bfbf00;" x="139.194051" xlink:href="#maf26a07528" y="277.619845"/>
     <use style="fill:#bfbf00;stroke:#bfbf00;" x="139.194051" xlink:href="#maf26a07528" y="198.735523"/>
    </g>
   </g>
   <g id="matplotlib.axis_1">
    <g id="xtick_1">
     <g id="line2d_1">
      <defs>
       <path d="M 0 0 
L 0 3.5 
" id="m2c7e67f6eb" style="stroke:#000000;stroke-width:0.8;"/>
      </defs>
      <g>
       <use style="stroke:#000000;stroke-width:0.8;" x="31.104928" xlink:href="#m2c7e67f6eb" y="298.856634"/>
      </g>
     </g>
     <g id="text_1">
      <!-- −45 -->
      <defs>
       <path d="M 10.59375 35.5 
L 73.1875 35.5 
L 73.1875 27.203125 
L 10.59375 27.203125 
z
" id="DejaVuSans-8722"/>
       <path d="M 37.796875 64.3125 
L 12.890625 25.390625 
L 37.796875 25.390625 
z
M 35.203125 72.90625 
L 47.609375 72.90625 
L 47.609375 25.390625 
L 58.015625 25.390625 
L 58.015625 17.1875 
L 47.609375 17.1875 
L 47.609375 0 
L 37.796875 0 
L 37.796875 17.1875 
L 4.890625 17.1875 
L 4.890625 26.703125 
z
" id="DejaVuSans-52"/>
       <path d="M 10.796875 72.90625 
L 49.515625 72.90625 
L 49.515625 64.59375 
L 19.828125 64.59375 
L 19.828125 46.734375 
Q 21.96875 47.46875 24.109375 47.828125 
Q 26.265625 48.1875 28.421875 48.1875 
Q 40.625 48.1875 47.75 41.5 
Q 54.890625 34.8125 54.890625 23.390625 
Q 54.890625 11.625 47.5625 5.09375 
Q 40.234375 -1.421875 26.90625 -1.421875 
Q 22.3125 -1.421875 17.546875 -0.640625 
Q 12.796875 0.140625 7.71875 1.703125 
L 7.71875 11.625 
Q 12.109375 9.234375 16.796875 8.0625 
Q 21.484375 6.890625 26.703125 6.890625 
Q 35.15625 6.890625 40.078125 11.328125 
Q 45.015625 15.765625 45.015625 23.390625 
Q 45.015625 31 40.078125 35.4375 
Q 35.15625 39.890625 26.703125 39.890625 
Q 22.75 39.890625 18.8125 39.015625 
Q 14.890625 38.140625 10.796875 36.28125 
z
" id="DejaVuSans-53"/>
      </defs>
      <g transform="translate(20.552584 313.455072)scale(0.1 -0.1)">
       <use xlink:href="#DejaVuSans-8722"/>
       <use x="83.789062" xlink:href="#DejaVuSans-52"/>
       <use x="147.412109" xlink:href="#DejaVuSans-53"/>
      </g>
     </g>
    </g>
    <g id="xtick_2">
     <g id="line2d_2">
      <g>
       <use style="stroke:#000000;stroke-width:0.8;" x="52.722752" xlink:href="#m2c7e67f6eb" y="298.856634"/>
      </g>
     </g>
     <g id="text_2">
      <!-- −30 -->
      <defs>
       <path d="M 40.578125 39.3125 
Q 47.65625 37.796875 51.625 33 
Q 55.609375 28.21875 55.609375 21.1875 
Q 55.609375 10.40625 48.1875 4.484375 
Q 40.765625 -1.421875 27.09375 -1.421875 
Q 22.515625 -1.421875 17.65625 -0.515625 
Q 12.796875 0.390625 7.625 2.203125 
L 7.625 11.71875 
Q 11.71875 9.328125 16.59375 8.109375 
Q 21.484375 6.890625 26.8125 6.890625 
Q 36.078125 6.890625 40.9375 10.546875 
Q 45.796875 14.203125 45.796875 21.1875 
Q 45.796875 27.640625 41.28125 31.265625 
Q 36.765625 34.90625 28.71875 34.90625 
L 20.21875 34.90625 
L 20.21875 43.015625 
L 29.109375 43.015625 
Q 36.375 43.015625 40.234375 45.921875 
Q 44.09375 48.828125 44.09375 54.296875 
Q 44.09375 59.90625 40.109375 62.90625 
Q 36.140625 65.921875 28.71875 65.921875 
Q 24.65625 65.921875 20.015625 65.03125 
Q 15.375 64.15625 9.8125 62.3125 
L 9.8125 71.09375 
Q 15.4375 72.65625 20.34375 73.4375 
Q 25.25 74.21875 29.59375 74.21875 
Q 40.828125 74.21875 47.359375 69.109375 
Q 53.90625 64.015625 53.90625 55.328125 
Q 53.90625 49.265625 50.4375 45.09375 
Q 46.96875 40.921875 40.578125 39.3125 
z
" id="DejaVuSans-51"/>
       <path d="M 31.78125 66.40625 
Q 24.171875 66.40625 20.328125 58.90625 
Q 16.5 51.421875 16.5 36.375 
Q 16.5 21.390625 20.328125 13.890625 
Q 24.171875 6.390625 31.78125 6.390625 
Q 39.453125 6.390625 43.28125 13.890625 
Q 47.125 21.390625 47.125 36.375 
Q 47.125 51.421875 43.28125 58.90625 
Q 39.453125 66.40625 31.78125 66.40625 
z
M 31.78125 74.21875 
Q 44.046875 74.21875 50.515625 64.515625 
Q 56.984375 54.828125 56.984375 36.375 
Q 56.984375 17.96875 50.515625 8.265625 
Q 44.046875 -1.421875 31.78125 -1.421875 
Q 19.53125 -1.421875 13.0625 8.265625 
Q 6.59375 17.96875 6.59375 36.375 
Q 6.59375 54.828125 13.0625 64.515625 
Q 19.53125 74.21875 31.78125 74.21875 
z
" id="DejaVuSans-48"/>
      </defs>
      <g transform="translate(42.170408 313.455072)scale(0.1 -0.1)">
       <use xlink:href="#DejaVuSans-8722"/>
       <use x="83.789062" xlink:href="#DejaVuSans-51"/>
       <use x="147.412109" xlink:href="#DejaVuSans-48"/>
      </g>
     </g>
    </g>
    <g id="xtick_3">
     <g id="line2d_3">
      <g>
       <use style="stroke:#000000;stroke-width:0.8;" x="74.340577" xlink:href="#m2c7e67f6eb" y="298.856634"/>
      </g>
     </g>
     <g id="text_3">
      <!-- −15 -->
      <defs>
       <path d="M 12.40625 8.296875 
L 28.515625 8.296875 
L 28.515625 63.921875 
L 10.984375 60.40625 
L 10.984375 69.390625 
L 28.421875 72.90625 
L 38.28125 72.90625 
L 38.28125 8.296875 
L 54.390625 8.296875 
L 54.390625 0 
L 12.40625 0 
z
" id="DejaVuSans-49"/>
      </defs>
      <g transform="translate(63.788233 313.455072)scale(0.1 -0.1)">
       <use xlink:href="#DejaVuSans-8722"/>
       <use x="83.789062" xlink:href="#DejaVuSans-49"/>
       <use x="147.412109" xlink:href="#DejaVuSans-53"/>
      </g>
     </g>
    </g>
    <g id="xtick_4">
     <g id="line2d_4">
      <g>
       <use style="stroke:#000000;stroke-width:0.8;" x="95.958401" xlink:href="#m2c7e67f6eb" y="298.856634"/>
      </g>
     </g>
     <g id="text_4">
      <!-- 0 -->
      <g transform="translate(92.777151 313.455072)scale(0.1 -0.1)">
       <use xlink:href="#DejaVuSans-48"/>
      </g>
     </g>
    </g>
    <g id="xtick_5">
     <g id="line2d_5">
      <g>
       <use style="stroke:#000000;stroke-width:0.8;" x="117.576226" xlink:href="#m2c7e67f6eb" y="298.856634"/>
      </g>
     </g>
     <g id="text_5">
      <!-- 15 -->
      <g transform="translate(111.213726 313.455072)scale(0.1 -0.1)">
       <use xlink:href="#DejaVuSans-49"/>
       <use x="63.623047" xlink:href="#DejaVuSans-53"/>
      </g>
     </g>
    </g>
    <g id="xtick_6">
     <g id="line2d_6">
      <g>
       <use style="stroke:#000000;stroke-width:0.8;" x="139.194051" xlink:href="#m2c7e67f6eb" y="298.856634"/>
      </g>
     </g>
     <g id="text_6">
      <!-- 30 -->
      <g transform="translate(132.831551 313.455072)scale(0.1 -0.1)">
       <use xlink:href="#DejaVuSans-51"/>
       <use x="63.623047" xlink:href="#DejaVuSans-48"/>
      </g>
     </g>
    </g>
    <g id="xtick_7">
     <g id="line2d_7">
      <g>
       <use style="stroke:#000000;stroke-width:0.8;" x="160.811875" xlink:href="#m2c7e67f6eb" y="298.856634"/>
      </g>
     </g>
     <g id="text_7">
      <!-- 45 -->
      <g transform="translate(154.449375 313.455072)scale(0.1 -0.1)">
       <use xlink:href="#DejaVuSans-52"/>
       <use x="63.623047" xlink:href="#DejaVuSans-53"/>
      </g>
     </g>
    </g>
    <g id="xtick_8">
     <g id="line2d_8">
      <g>
       <use style="stroke:#000000;stroke-width:0.8;" x="182.4297" xlink:href="#m2c7e67f6eb" y="298.856634"/>
      </g>
     </g>
     <g id="text_8">
      <!-- 60 -->
      <defs>
       <path d="M 33.015625 40.375 
Q 26.375 40.375 22.484375 35.828125 
Q 18.609375 31.296875 18.609375 23.390625 
Q 18.609375 15.53125 22.484375 10.953125 
Q 26.375 6.390625 33.015625 6.390625 
Q 39.65625 6.390625 43.53125 10.953125 
Q 47.40625 15.53125 47.40625 23.390625 
Q 47.40625 31.296875 43.53125 35.828125 
Q 39.65625 40.375 33.015625 40.375 
z
M 52.59375 71.296875 
L 52.59375 62.3125 
Q 48.875 64.0625 45.09375 64.984375 
Q 41.3125 65.921875 37.59375 65.921875 
Q 27.828125 65.921875 22.671875 59.328125 
Q 17.53125 52.734375 16.796875 39.40625 
Q 19.671875 43.65625 24.015625 45.921875 
Q 28.375 48.1875 33.59375 48.1875 
Q 44.578125 48.1875 50.953125 41.515625 
Q 57.328125 34.859375 57.328125 23.390625 
Q 57.328125 12.15625 50.6875 5.359375 
Q 44.046875 -1.421875 33.015625 -1.421875 
Q 20.359375 -1.421875 13.671875 8.265625 
Q 6.984375 17.96875 6.984375 36.375 
Q 6.984375 53.65625 15.1875 63.9375 
Q 23.390625 74.21875 37.203125 74.21875 
Q 40.921875 74.21875 44.703125 73.484375 
Q 48.484375 72.75 52.59375 71.296875 
z
" id="DejaVuSans-54"/>
      </defs>
      <g transform="translate(176.0672 313.455072)scale(0.1 -0.1)">
       <use xlink:href="#DejaVuSans-54"/>
       <use x="63.623047" xlink:href="#DejaVuSans-48"/>
      </g>
     </g>
    </g>
    <g id="xtick_9">
     <g id="line2d_9">
      <g>
       <use style="stroke:#000000;stroke-width:0.8;" x="204.047524" xlink:href="#m2c7e67f6eb" y="298.856634"/>
      </g>
     </g>
     <g id="text_9">
      <!-- 75 -->
      <defs>
       <path d="M 8.203125 72.90625 
L 55.078125 72.90625 
L 55.078125 68.703125 
L 28.609375 0 
L 18.3125 0 
L 43.21875 64.59375 
L 8.203125 64.59375 
z
" id="DejaVuSans-55"/>
      </defs>
      <g transform="translate(197.685024 313.455072)scale(0.1 -0.1)">
       <use xlink:href="#DejaVuSans-55"/>
       <use x="63.623047" xlink:href="#DejaVuSans-53"/>
      </g>
     </g>
    </g>
    <g id="xtick_10">
     <g id="line2d_10">
      <g>
       <use style="stroke:#000000;stroke-width:0.8;" x="225.665349" xlink:href="#m2c7e67f6eb" y="298.856634"/>
      </g>
     </g>
     <g id="text_10">
      <!-- 90 -->
      <defs>
       <path d="M 10.984375 1.515625 
L 10.984375 10.5 
Q 14.703125 8.734375 18.5 7.8125 
Q 22.3125 6.890625 25.984375 6.890625 
Q 35.75 6.890625 40.890625 13.453125 
Q 46.046875 20.015625 46.78125 33.40625 
Q 43.953125 29.203125 39.59375 26.953125 
Q 35.25 24.703125 29.984375 24.703125 
Q 19.046875 24.703125 12.671875 31.3125 
Q 6.296875 37.9375 6.296875 49.421875 
Q 6.296875 60.640625 12.9375 67.421875 
Q 19.578125 74.21875 30.609375 74.21875 
Q 43.265625 74.21875 49.921875 64.515625 
Q 56.59375 54.828125 56.59375 36.375 
Q 56.59375 19.140625 48.40625 8.859375 
Q 40.234375 -1.421875 26.421875 -1.421875 
Q 22.703125 -1.421875 18.890625 -0.6875 
Q 15.09375 0.046875 10.984375 1.515625 
z
M 30.609375 32.421875 
Q 37.25 32.421875 41.125 36.953125 
Q 45.015625 41.5 45.015625 49.421875 
Q 45.015625 57.28125 41.125 61.84375 
Q 37.25 66.40625 30.609375 66.40625 
Q 23.96875 66.40625 20.09375 61.84375 
Q 16.21875 57.28125 16.21875 49.421875 
Q 16.21875 41.5 20.09375 36.953125 
Q 23.96875 32.421875 30.609375 32.421875 
z
" id="DejaVuSans-57"/>
      </defs>
      <g transform="translate(219.302849 313.455072)scale(0.1 -0.1)">
       <use xlink:href="#DejaVuSans-57"/>
       <use x="63.623047" xlink:href="#DejaVuSans-48"/>
      </g>
     </g>
    </g>
    <g id="xtick_11">
     <g id="line2d_11">
      <g>
       <use style="stroke:#000000;stroke-width:0.8;" x="247.283174" xlink:href="#m2c7e67f6eb" y="298.856634"/>
      </g>
     </g>
     <g id="text_11">
      <!-- 105 -->
      <g transform="translate(237.739424 313.455072)scale(0.1 -0.1)">
       <use xlink:href="#DejaVuSans-49"/>
       <use x="63.623047" xlink:href="#DejaVuSans-48"/>
       <use x="127.246094" xlink:href="#DejaVuSans-53"/>
      </g>
     </g>
    </g>
   </g>
   <g id="matplotlib.axis_2">
    <g id="ytick_1">
     <g id="line2d_12">
      <defs>
       <path d="M 0 0 
L -3.5 0 
" id="m753e1ac7df" style="stroke:#000000;stroke-width:0.8;"/>
      </defs>
      <g>
       <use style="stroke:#000000;stroke-width:0.8;" x="31.104928" xlink:href="#m753e1ac7df" y="298.856634"/>
      </g>
     </g>
     <g id="text_12">
      <!-- −60 -->
      <g transform="translate(3.00024 302.655853)scale(0.1 -0.1)">
       <use xlink:href="#DejaVuSans-8722"/>
       <use x="83.789062" xlink:href="#DejaVuSans-54"/>
       <use x="147.412109" xlink:href="#DejaVuSans-48"/>
      </g>
     </g>
    </g>
    <g id="ytick_2">
     <g id="line2d_13">
      <g>
       <use style="stroke:#000000;stroke-width:0.8;" x="31.104928" xlink:href="#m753e1ac7df" y="277.23881"/>
      </g>
     </g>
     <g id="text_13">
      <!-- −45 -->
      <g transform="translate(3.00024 281.038028)scale(0.1 -0.1)">
       <use xlink:href="#DejaVuSans-8722"/>
       <use x="83.789062" xlink:href="#DejaVuSans-52"/>
       <use x="147.412109" xlink:href="#DejaVuSans-53"/>
      </g>
     </g>
    </g>
    <g id="ytick_3">
     <g id="line2d_14">
      <g>
       <use style="stroke:#000000;stroke-width:0.8;" x="31.104928" xlink:href="#m753e1ac7df" y="255.620985"/>
      </g>
     </g>
     <g id="text_14">
      <!-- −30 -->
      <g transform="translate(3.00024 259.420204)scale(0.1 -0.1)">
       <use xlink:href="#DejaVuSans-8722"/>
       <use x="83.789062" xlink:href="#DejaVuSans-51"/>
       <use x="147.412109" xlink:href="#DejaVuSans-48"/>
      </g>
     </g>
    </g>
    <g id="ytick_4">
     <g id="line2d_15">
      <g>
       <use style="stroke:#000000;stroke-width:0.8;" x="31.104928" xlink:href="#m753e1ac7df" y="234.00316"/>
      </g>
     </g>
     <g id="text_15">
      <!-- −15 -->
      <g transform="translate(3.00024 237.802379)scale(0.1 -0.1)">
       <use xlink:href="#DejaVuSans-8722"/>
       <use x="83.789062" xlink:href="#DejaVuSans-49"/>
       <use x="147.412109" xlink:href="#DejaVuSans-53"/>
      </g>
     </g>
    </g>
    <g id="ytick_5">
     <g id="line2d_16">
      <g>
       <use style="stroke:#000000;stroke-width:0.8;" x="31.104928" xlink:href="#m753e1ac7df" y="212.385336"/>
      </g>
     </g>
     <g id="text_16">
      <!-- 0 -->
      <g transform="translate(17.742428 216.184555)scale(0.1 -0.1)">
       <use xlink:href="#DejaVuSans-48"/>
      </g>
     </g>
    </g>
    <g id="ytick_6">
     <g id="line2d_17">
      <g>
       <use style="stroke:#000000;stroke-width:0.8;" x="31.104928" xlink:href="#m753e1ac7df" y="190.767511"/>
      </g>
     </g>
     <g id="text_17">
      <!-- 15 -->
      <g transform="translate(11.379928 194.56673)scale(0.1 -0.1)">
       <use xlink:href="#DejaVuSans-49"/>
       <use x="63.623047" xlink:href="#DejaVuSans-53"/>
      </g>
     </g>
    </g>
    <g id="ytick_7">
     <g id="line2d_18">
      <g>
       <use style="stroke:#000000;stroke-width:0.8;" x="31.104928" xlink:href="#m753e1ac7df" y="169.149687"/>
      </g>
     </g>
     <g id="text_18">
      <!-- 30 -->
      <g transform="translate(11.379928 172.948905)scale(0.1 -0.1)">
       <use xlink:href="#DejaVuSans-51"/>
       <use x="63.623047" xlink:href="#DejaVuSans-48"/>
      </g>
     </g>
    </g>
    <g id="ytick_8">
     <g id="line2d_19">
      <g>
       <use style="stroke:#000000;stroke-width:0.8;" x="31.104928" xlink:href="#m753e1ac7df" y="147.531862"/>
      </g>
     </g>
     <g id="text_19">
      <!-- 45 -->
      <g transform="translate(11.379928 151.331081)scale(0.1 -0.1)">
       <use xlink:href="#DejaVuSans-52"/>
       <use x="63.623047" xlink:href="#DejaVuSans-53"/>
      </g>
     </g>
    </g>
    <g id="ytick_9">
     <g id="line2d_20">
      <g>
       <use style="stroke:#000000;stroke-width:0.8;" x="31.104928" xlink:href="#m753e1ac7df" y="125.914037"/>
      </g>
     </g>
     <g id="text_20">
      <!-- 60 -->
      <g transform="translate(11.379928 129.713256)scale(0.1 -0.1)">
       <use xlink:href="#DejaVuSans-54"/>
       <use x="63.623047" xlink:href="#DejaVuSans-48"/>
      </g>
     </g>
    </g>
    <g id="ytick_10">
     <g id="line2d_21">
      <g>
       <use style="stroke:#000000;stroke-width:0.8;" x="31.104928" xlink:href="#m753e1ac7df" y="104.296213"/>
      </g>
     </g>
     <g id="text_21">
      <!-- 75 -->
      <g transform="translate(11.379928 108.095432)scale(0.1 -0.1)">
       <use xlink:href="#DejaVuSans-55"/>
       <use x="63.623047" xlink:href="#DejaVuSans-53"/>
      </g>
     </g>
    </g>
    <g id="ytick_11">
     <g id="line2d_22">
      <g>
       <use style="stroke:#000000;stroke-width:0.8;" x="31.104928" xlink:href="#m753e1ac7df" y="82.678388"/>
      </g>
     </g>
     <g id="text_22">
      <!-- 90 -->
      <g transform="translate(11.379928 86.477607)scale(0.1 -0.1)">
       <use xlink:href="#DejaVuSans-57"/>
       <use x="63.623047" xlink:href="#DejaVuSans-48"/>
      </g>
     </g>
    </g>
   </g>
   <g id="LineCollection_1">
    <path clip-path="url(#p2919fcff64)" d="M 139.194051 97.090271 
L 131.819106 97.930801 
L 125.250854 98.877544 
L 119.430172 99.913002 
L 114.281585 101.022157 
L 109.725695 102.192443 
L 105.686416 103.413512 
L 102.094541 104.676904 
L 98.889032 105.975733 
L 96.017046 107.304391 
L 93.433322 108.658298 
L 91.099319 110.033702 
L 88.982299 111.427516 
L 87.054462 112.837185 
L 85.292174 114.260581 
L 83.675295 115.695928 
L 82.18662 117.141728 
L 80.811398 118.596716 
L 79.536939 120.059816 
L 78.352288 121.530109 
L 77.247953 123.006804 
L 76.215678 124.489219 
L 75.248254 125.976765 
L 74.339368 127.468925 
L 73.483471 128.96525 
L 72.675667 130.465346 
L 71.911624 131.968865 
L 71.187496 133.475498 
L 70.499859 134.984974 
L 69.845653 136.497048 
L 69.22214 138.011505 
L 68.626859 139.52815 
L 68.057595 141.046809 
L 67.512347 142.567324 
L 66.989306 144.089553 
L 66.486828 145.613368 
L 66.003421 147.138653 
L 65.537723 148.6653 
L 65.088491 150.193214 
L 64.654587 151.722306 
L 64.234967 153.252494 
L 63.828672 154.783705 
L 63.434818 156.31587 
L 63.052591 157.848926 
L 62.681236 159.382815 
L 62.320057 160.917482 
L 61.968404 162.452879 
L 61.625677 163.988959 
L 61.291316 165.525677 
L 60.964796 167.062995 
L 60.64563 168.600875 
L 60.333361 170.139282 
L 60.027558 171.678182 
L 59.72782 173.217545 
L 59.433767 174.757341 
L 59.145041 176.297544 
L 58.861304 177.838128 
L 58.582238 179.379067 
L 58.307538 180.920339 
L 58.036916 182.461922 
L 57.7701 184.003795 
L 57.506827 185.545938 
L 57.246847 187.088331 
L 56.989923 188.630958 
L 56.735823 190.173799 
L 56.484329 191.716838 
L 56.235226 193.26006 
L 55.98831 194.803448 
L 55.743382 196.346987 
L 55.500248 197.890663 
L 55.258722 199.434461 
L 55.01862 200.978368 
L 54.779764 202.522369 
L 54.541977 204.066452 
L 54.305087 205.610603 
L 54.068925 207.154809 
L 53.833323 208.699058 
L 53.598114 210.243336 
L 53.363133 211.787632 
L 53.128216 213.331933 
L 52.893198 214.876226 
L 52.657915 216.420499 
L 52.4222 217.96474 
L 52.185889 219.508935 
L 51.948811 221.053071 
L 51.710798 222.597137 
L 51.471675 224.141118 
L 51.231267 225.685001 
L 50.989394 227.228773 
L 50.745872 228.772419 
L 50.500512 230.315925 
L 50.25312 231.859277 
L 50.003495 233.402459 
L 49.75143 234.945455 
L 49.496712 236.488249 
L 49.239118 238.030824 
L 48.978415 239.573163 
L 48.714364 241.115246 
L 48.446711 242.657056 
L 48.175193 244.19857 
L 47.899532 245.739769 
L 47.619438 247.28063 
" style="fill:none;stroke:#008000;stroke-width:1.5;"/>
    <path clip-path="url(#p2919fcff64)" d="M 47.619438 247.28063 
L 48.948438 248.270019 
L 50.292241 249.251148 
L 51.651351 250.223663 
L 53.02627 251.1872 
L 54.417501 252.141384 
L 55.825546 253.085832 
L 57.250905 254.020148 
L 58.694071 254.943927 
L 60.155536 255.856751 
L 61.635781 256.758194 
L 63.135282 257.647816 
L 64.654503 258.525168 
L 66.193895 259.389789 
L 67.753894 260.241206 
L 69.334921 261.078936 
L 70.937375 261.902485 
L 72.561632 262.711347 
L 74.208046 263.505009 
L 75.876938 264.282945 
L 77.5686 265.044619 
L 79.283287 265.78949 
L 81.021215 266.517005 
L 82.782559 267.226604 
L 84.567446 267.917724 
L 86.375953 268.589793 
L 88.208101 269.242236 
L 90.063856 269.874475 
L 91.943119 270.48593 
L 93.845727 271.076023 
L 95.771448 271.644175 
L 97.719974 272.189813 
L 99.690925 272.712369 
L 101.683841 273.211281 
L 103.69818 273.685998 
L 105.73332 274.135982 
L 107.788553 274.560709 
L 109.863088 274.95967 
L 111.956047 275.332378 
L 114.06647 275.678366 
L 116.193317 275.997191 
L 118.335465 276.288438 
L 120.491716 276.551721 
L 122.660799 276.786684 
L 124.841377 276.993005 
L 127.032051 277.170399 
L 129.231364 277.318615 
L 131.437814 277.437444 
L 133.649858 277.526716 
L 135.865921 277.586302 
L 138.084405 277.616117 
L 140.303697 277.616117 
L 142.52218 277.586302 
L 144.738243 277.526716 
L 146.950287 277.437444 
L 149.156737 277.318615 
L 151.356051 277.170399 
L 153.546724 276.993005 
L 155.727302 276.786684 
L 157.896385 276.551721 
L 160.052636 276.288438 
L 162.194784 275.997191 
L 164.321631 275.678366 
L 166.432055 275.332378 
L 168.525014 274.95967 
L 170.599548 274.560709 
L 172.654781 274.135982 
L 174.689921 273.685998 
L 176.70426 273.211281 
L 178.697176 272.712369 
L 180.668127 272.189813 
L 182.616654 271.644175 
L 184.542374 271.076023 
L 186.444982 270.48593 
L 188.324245 269.874475 
L 190.18 269.242236 
L 192.012148 268.589793 
L 193.820655 267.917724 
L 195.605542 267.226604 
L 197.366886 266.517005 
L 199.104814 265.78949 
L 200.819501 265.044619 
L 202.511163 264.282945 
L 204.180055 263.505009 
L 205.826469 262.711347 
L 207.450727 261.902485 
L 209.05318 261.078936 
L 210.634207 260.241206 
L 212.194206 259.389789 
L 213.733598 258.525168 
L 215.252819 257.647816 
L 216.75232 256.758194 
L 218.232566 255.856751 
L 219.69403 254.943927 
L 221.137197 254.020148 
L 222.562555 253.085832 
L 223.9706 252.141384 
L 225.361831 251.1872 
L 226.73675 250.223663 
L 228.09586 249.251148 
L 229.439663 248.270019 
L 230.768664 247.28063 
" style="fill:none;stroke:#008000;stroke-width:1.5;"/>
    <path clip-path="url(#p2919fcff64)" d="M 230.768664 247.28063 
L 230.488569 245.739769 
L 230.212908 244.19857 
L 229.94139 242.657056 
L 229.673737 241.115246 
L 229.409686 239.573163 
L 229.148983 238.030824 
L 228.891389 236.488249 
L 228.636671 234.945455 
L 228.384606 233.402459 
L 228.134982 231.859277 
L 227.887589 230.315925 
L 227.642229 228.772419 
L 227.398707 227.228773 
L 227.156834 225.685001 
L 226.916426 224.141118 
L 226.677303 222.597137 
L 226.43929 221.053071 
L 226.202212 219.508935 
L 225.965901 217.96474 
L 225.730187 216.420499 
L 225.494903 214.876226 
L 225.259885 213.331933 
L 225.024968 211.787632 
L 224.789987 210.243336 
L 224.554778 208.699058 
L 224.319176 207.154809 
L 224.083014 205.610603 
L 223.846124 204.066452 
L 223.608337 202.522369 
L 223.369481 200.978368 
L 223.129379 199.434461 
L 222.887853 197.890663 
L 222.64472 196.346987 
L 222.399791 194.803448 
L 222.152875 193.26006 
L 221.903772 191.716838 
L 221.652278 190.173799 
L 221.398178 188.630958 
L 221.141254 187.088331 
L 220.881274 185.545938 
L 220.618001 184.003795 
L 220.351185 182.461922 
L 220.080563 180.920339 
L 219.805863 179.379067 
L 219.526797 177.838128 
L 219.24306 176.297544 
L 218.954334 174.757341 
L 218.660281 173.217545 
L 218.360543 171.678182 
L 218.054741 170.139282 
L 217.742471 168.600875 
L 217.423305 167.062995 
L 217.096785 165.525677 
L 216.762424 163.988959 
L 216.419697 162.452879 
L 216.068044 160.917482 
L 215.706865 159.382815 
L 215.33551 157.848926 
L 214.953283 156.31587 
L 214.559429 154.783705 
L 214.153134 153.252494 
L 213.733514 151.722306 
L 213.29961 150.193214 
L 212.850378 148.6653 
L 212.38468 147.138653 
L 211.901273 145.613368 
L 211.398795 144.089553 
L 210.875754 142.567324 
L 210.330506 141.046809 
L 209.761242 139.52815 
L 209.165961 138.011505 
L 208.542448 136.497048 
L 207.888242 134.984974 
L 207.200605 133.475498 
L 206.476477 131.968865 
L 205.712434 130.465346 
L 204.90463 128.96525 
L 204.048733 127.468925 
L 203.139847 125.976765 
L 202.172424 124.489219 
L 201.140148 123.006804 
L 200.035813 121.530109 
L 198.851163 120.059816 
L 197.576704 118.596716 
L 196.201481 117.141728 
L 194.712806 115.695928 
L 193.095927 114.260581 
L 191.333639 112.837185 
L 189.405802 111.427516 
L 187.288782 110.033702 
L 184.954779 108.658298 
L 182.371055 107.304391 
L 179.499069 105.975733 
L 176.29356 104.676904 
L 172.701685 103.413512 
L 168.662406 102.192443 
L 164.106516 101.022157 
L 158.957929 99.913002 
L 153.137247 98.877544 
L 146.568995 97.930801 
L 139.194051 97.090271 
" style="fill:none;stroke:#008000;stroke-width:1.5;"/>
   </g>
   <g id="LineCollection_2">
    <path clip-path="url(#p2919fcff64)" d="M 31.104928 298.856634 
L 247.283174 298.856634 
L 247.283174 298.856634 
" style="fill:none;stroke:#d3d3d3;stroke-width:1.5;"/>
    <path clip-path="url(#p2919fcff64)" d="M 31.104928 277.23881 
L 247.283174 277.23881 
L 247.283174 277.23881 
" style="fill:none;stroke:#d3d3d3;stroke-width:1.5;"/>
    <path clip-path="url(#p2919fcff64)" d="M 31.104928 255.620985 
L 247.283174 255.620985 
L 247.283174 255.620985 
" style="fill:none;stroke:#d3d3d3;stroke-width:1.5;"/>
    <path clip-path="url(#p2919fcff64)" d="M 31.104928 234.00316 
L 247.283174 234.00316 
L 247.283174 234.00316 
" style="fill:none;stroke:#d3d3d3;stroke-width:1.5;"/>
    <path clip-path="url(#p2919fcff64)" d="M 31.104928 212.385336 
L 247.283174 212.385336 
L 247.283174 212.385336 
" style="fill:none;stroke:#d3d3d3;stroke-width:1.5;"/>
    <path clip-path="url(#p2919fcff64)" d="M 31.104928 190.767511 
L 247.283174 190.767511 
L 247.283174 190.767511 
" style="fill:none;stroke:#d3d3d3;stroke-width:1.5;"/>
    <path clip-path="url(#p2919fcff64)" d="M 31.104928 169.149687 
L 247.283174 169.149687 
L 247.283174 169.149687 
" style="fill:none;stroke:#d3d3d3;stroke-width:1.5;"/>
    <path clip-path="url(#p2919fcff64)" d="M 31.104928 147.531862 
L 247.283174 147.531862 
L 247.283174 147.531862 
" style="fill:none;stroke:#d3d3d3;stroke-width:1.5;"/>
    <path clip-path="url(#p2919fcff64)" d="M 31.104928 125.914037 
L 247.283174 125.914037 
L 247.283174 125.914037 
" style="fill:none;stroke:#d3d3d3;stroke-width:1.5;"/>
    <path clip-path="url(#p2919fcff64)" d="M 31.104928 104.296213 
L 247.283174 104.296213 
L 247.283174 104.296213 
" style="fill:none;stroke:#d3d3d3;stroke-width:1.5;"/>
    <path clip-path="url(#p2919fcff64)" d="M 31.104928 82.678388 
L 247.283174 82.678388 
L 247.283174 82.678388 
" style="fill:none;stroke:#d3d3d3;stroke-width:1.5;"/>
    <path clip-path="url(#p2919fcff64)" d="M 31.104928 298.856634 
L 31.104928 82.678388 
L 31.104928 82.678388 
" style="fill:none;stroke:#d3d3d3;stroke-width:1.5;"/>
    <path clip-path="url(#p2919fcff64)" d="M 52.722752 298.856634 
L 52.722752 82.678388 
L 52.722752 82.678388 
" style="fill:none;stroke:#d3d3d3;stroke-width:1.5;"/>
    <path clip-path="url(#p2919fcff64)" d="M 74.340577 298.856634 
L 74.340577 82.678388 
L 74.340577 82.678388 
" style="fill:none;stroke:#d3d3d3;stroke-width:1.5;"/>
    <path clip-path="url(#p2919fcff64)" d="M 95.958401 298.856634 
L 95.958401 82.678388 
L 95.958401 82.678388 
" style="fill:none;stroke:#d3d3d3;stroke-width:1.5;"/>
    <path clip-path="url(#p2919fcff64)" d="M 117.576226 298.856634 
L 117.576226 82.678388 
L 117.576226 82.678388 
" style="fill:none;stroke:#d3d3d3;stroke-width:1.5;"/>
    <path clip-path="url(#p2919fcff64)" d="M 139.194051 298.856634 
L 139.194051 82.678388 
L 139.194051 82.678388 
" style="fill:none;stroke:#d3d3d3;stroke-width:1.5;"/>
    <path clip-path="url(#p2919fcff64)" d="M 160.811875 298.856634 
L 160.811875 82.678388 
L 160.811875 82.678388 
" style="fill:none;stroke:#d3d3d3;stroke-width:1.5;"/>
    <path clip-path="url(#p2919fcff64)" d="M 182.4297 298.856634 
L 182.4297 82.678388 
L 182.4297 82.678388 
" style="fill:none;stroke:#d3d3d3;stroke-width:1.5;"/>
    <path clip-path="url(#p2919fcff64)" d="M 204.047524 298.856634 
L 204.047524 82.678388 
L 204.047524 82.678388 
" style="fill:none;stroke:#d3d3d3;stroke-width:1.5;"/>
    <path clip-path="url(#p2919fcff64)" d="M 225.665349 298.856634 
L 225.665349 82.678388 
L 225.665349 82.678388 
" style="fill:none;stroke:#d3d3d3;stroke-width:1.5;"/>
    <path clip-path="url(#p2919fcff64)" d="M 247.283174 298.856634 
L 247.283174 82.678388 
L 247.283174 82.678388 
" style="fill:none;stroke:#d3d3d3;stroke-width:1.5;"/>
   </g>
   <g id="LineCollection_3"/>
   <g id="LineCollection_4">
    <path clip-path="url(#p2919fcff64)" d="M 46.957999 250.55435 
L 46.988044 250.576826 
L 47.434043 251.29742 
L 46.957999 251.778003 
" style="fill:none;stroke:#472d7b;stroke-width:1.5;"/>
    <path clip-path="url(#p2919fcff64)" d="M 50.566858 97.090271 
L 51.281564 97.769985 
L 51.86215 97.810865 
L 51.281564 98.389681 
L 50.56097 98.394629 
L 49.840375 98.399295 
L 49.119781 98.403699 
L 48.399187 98.407863 
L 47.678593 98.411803 
L 46.957999 98.414364 
" style="fill:none;stroke:#472d7b;stroke-width:1.5;"/>
   </g>
   <g id="LineCollection_5">
    <path clip-path="url(#p2919fcff64)" d="M 50.691003 97.090271 
L 51.281564 97.651919 
L 52.002158 97.703939 
L 52.615731 97.090271 
" style="fill:none;stroke:#3b528b;stroke-width:1.5;"/>
   </g>
   <g id="LineCollection_6">
    <path clip-path="url(#p2919fcff64)" d="M 50.815147 97.090271 
L 51.281564 97.533852 
L 52.002158 97.587271 
L 52.499081 97.090271 
" style="fill:none;stroke:#2c728e;stroke-width:1.5;"/>
   </g>
   <g id="LineCollection_7">
    <path clip-path="url(#p2919fcff64)" d="M 50.939292 97.090271 
L 51.281564 97.415786 
L 52.002158 97.470602 
L 52.382431 97.090271 
" style="fill:none;stroke:#21918c;stroke-width:1.5;"/>
   </g>
   <g id="LineCollection_8">
    <path clip-path="url(#p2919fcff64)" d="M 51.063436 97.090271 
L 51.281564 97.297719 
L 52.002158 97.353934 
L 52.26578 97.090271 
" style="fill:none;stroke:#28ae80;stroke-width:1.5;"/>
   </g>
   <g id="LineCollection_9">
    <path clip-path="url(#p2919fcff64)" d="M 51.187581 97.090271 
L 51.281564 97.179653 
L 52.002158 97.237266 
L 52.14913 97.090271 
" style="fill:none;stroke:#5ec962;stroke-width:1.5;"/>
   </g>
   <g id="LineCollection_10">
    <path clip-path="url(#p2919fcff64)" d="M 51.629692 97.090271 
L 52.002158 97.120598 
L 52.03248 97.090271 
" style="fill:none;stroke:#addc30;stroke-width:1.5;"/>
   </g>
   <g id="LineCollection_11"/>
   <g id="patch_3">
    <path d="M 31.104928 298.856634 
L 31.104928 82.678388 
" style="fill:none;stroke:#000000;stroke-linecap:square;stroke-linejoin:miter;stroke-width:0.8;"/>
   </g>
   <g id="patch_4">
    <path d="M 247.283174 298.856634 
L 247.283174 82.678388 
" style="fill:none;stroke:#000000;stroke-linecap:square;stroke-linejoin:miter;stroke-width:0.8;"/>
   </g>
   <g id="patch_5">
    <path d="M 31.104928 298.856634 
L 247.283174 298.856634 
" style="fill:none;stroke:#000000;stroke-linecap:square;stroke-linejoin:miter;stroke-width:0.8;"/>
   </g>
   <g id="patch_6">
    <path d="M 31.104928 82.678388 
L 247.283174 82.678388 
" style="fill:none;stroke:#000000;stroke-linecap:square;stroke-linejoin:miter;stroke-width:0.8;"/>
   </g>
   <g id="text_23">
    <!-- 0.875 -->
    <defs>
     <path d="M 10.6875 12.40625 
L 21 12.40625 
L 21 0 
L 10.6875 0 
z
" id="DejaVuSans-46"/>
     <path d="M 31.78125 34.625 
Q 24.75 34.625 20.71875 30.859375 
Q 16.703125 27.09375 16.703125 20.515625 
Q 16.703125 13.921875 20.71875 10.15625 
Q 24.75 6.390625 31.78125 6.390625 
Q 38.8125 6.390625 42.859375 10.171875 
Q 46.921875 13.96875 46.921875 20.515625 
Q 46.921875 27.09375 42.890625 30.859375 
Q 38.875 34.625 31.78125 34.625 
z
M 21.921875 38.8125 
Q 15.578125 40.375 12.03125 44.71875 
Q 8.5 49.078125 8.5 55.328125 
Q 8.5 64.0625 14.71875 69.140625 
Q 20.953125 74.21875 31.78125 74.21875 
Q 42.671875 74.21875 48.875 69.140625 
Q 55.078125 64.0625 55.078125 55.328125 
Q 55.078125 49.078125 51.53125 44.71875 
Q 48 40.375 41.703125 38.8125 
Q 48.828125 37.15625 52.796875 32.3125 
Q 56.78125 27.484375 56.78125 20.515625 
Q 56.78125 9.90625 50.3125 4.234375 
Q 43.84375 -1.421875 31.78125 -1.421875 
Q 19.734375 -1.421875 13.25 4.234375 
Q 6.78125 9.90625 6.78125 20.515625 
Q 6.78125 27.484375 10.78125 32.3125 
Q 14.796875 37.15625 21.921875 38.8125 
z
M 18.3125 54.390625 
Q 18.3125 48.734375 21.84375 45.5625 
Q 25.390625 42.390625 31.78125 42.390625 
Q 38.140625 42.390625 41.71875 45.5625 
Q 45.3125 48.734375 45.3125 54.390625 
Q 45.3125 60.0625 41.71875 63.234375 
Q 38.140625 66.40625 31.78125 66.40625 
Q 25.390625 66.40625 21.84375 63.234375 
Q 18.3125 60.0625 18.3125 54.390625 
z
" id="DejaVuSans-56"/>
    </defs>
    <g transform="translate(139.194051 97.090271)scale(0.1 -0.1)">
     <use xlink:href="#DejaVuSans-48"/>
     <use x="63.623047" xlink:href="#DejaVuSans-46"/>
     <use x="95.410156" xlink:href="#DejaVuSans-56"/>
     <use x="159.033203" xlink:href="#DejaVuSans-55"/>
     <use x="222.65625" xlink:href="#DejaVuSans-53"/>
    </g>
   </g>
   <g id="text_24">
    <!-- 0.433 -->
    <g transform="translate(46.957999 246.973855)scale(0.1 -0.1)">
     <use xlink:href="#DejaVuSans-48"/>
     <use x="63.623047" xlink:href="#DejaVuSans-46"/>
     <use x="95.410156" xlink:href="#DejaVuSans-52"/>
     <use x="159.033203" xlink:href="#DejaVuSans-51"/>
     <use x="222.65625" xlink:href="#DejaVuSans-51"/>
    </g>
   </g>
   <g id="text_25">
    <!-- 0.471 -->
    <g transform="translate(231.430102 246.973855)scale(0.1 -0.1)">
     <use xlink:href="#DejaVuSans-48"/>
     <use x="63.623047" xlink:href="#DejaVuSans-46"/>
     <use x="95.410156" xlink:href="#DejaVuSans-52"/>
     <use x="159.033203" xlink:href="#DejaVuSans-55"/>
     <use x="222.65625" xlink:href="#DejaVuSans-49"/>
    </g>
   </g>
   <g id="text_26">
    <!-- 1.004 -->
    <g transform="translate(218.459407 169.149687)scale(0.1 -0.1)">
     <use xlink:href="#DejaVuSans-49"/>
     <use x="63.623047" xlink:href="#DejaVuSans-46"/>
     <use x="95.410156" xlink:href="#DejaVuSans-48"/>
     <use x="159.033203" xlink:href="#DejaVuSans-48"/>
     <use x="222.65625" xlink:href="#DejaVuSans-52"/>
    </g>
   </g>
   <g id="text_27">
    <!-- 1.004 -->
    <g transform="translate(59.928694 169.149687)scale(0.1 -0.1)">
     <use xlink:href="#DejaVuSans-49"/>
     <use x="63.623047" xlink:href="#DejaVuSans-46"/>
     <use x="95.410156" xlink:href="#DejaVuSans-48"/>
     <use x="159.033203" xlink:href="#DejaVuSans-48"/>
     <use x="222.65625" xlink:href="#DejaVuSans-52"/>
    </g>
   </g>
   <g id="text_28">
    <!-- 1.004 -->
    <g transform="translate(139.194051 277.23881)scale(0.1 -0.1)">
     <use xlink:href="#DejaVuSans-49"/>
     <use x="63.623047" xlink:href="#DejaVuSans-46"/>
     <use x="95.410156" xlink:href="#DejaVuSans-48"/>
     <use x="159.033203" xlink:href="#DejaVuSans-48"/>
     <use x="222.65625" xlink:href="#DejaVuSans-52"/>
    </g>
   </g>
   <g id="text_29">
    <!-- 0.915 -->
    <g transform="translate(139.194051 199.414641)scale(0.1 -0.1)">
     <use xlink:href="#DejaVuSans-48"/>
     <use x="63.623047" xlink:href="#DejaVuSans-46"/>
     <use x="95.410156" xlink:href="#DejaVuSans-57"/>
     <use x="159.033203" xlink:href="#DejaVuSans-49"/>
     <use x="222.65625" xlink:href="#DejaVuSans-53"/>
    </g>
   </g>
  </g>
  <g id="axes_2">
   <g id="patch_7">
    <path d="M 312.906868 284.375438 
L 529.085114 284.375438 
L 529.085114 97.159585 
L 312.906868 97.159585 
z
" style="fill:#ffffff;"/>
   </g>
   <g id="PathCollection_3">
    <g clip-path="url(#pa8b5a43271)">
     <use style="fill:#008000;stroke:#008000;" x="420.995991" xlink:href="#m98550959e3" y="108.506"/>
     <use style="fill:#008000;stroke:#008000;" x="322.733152" xlink:href="#m98550959e3" y="278.70223"/>
     <use style="fill:#008000;stroke:#008000;" x="519.25883" xlink:href="#m98550959e3" y="278.70223"/>
    </g>
   </g>
   <g id="PathCollection_4">
    <g clip-path="url(#pa8b5a43271)">
     <use style="fill:#bfbf00;stroke:#bfbf00;" x="420.995991" xlink:href="#maf26a07528" y="108.506"/>
     <use style="fill:#bfbf00;stroke:#bfbf00;" x="322.733152" xlink:href="#maf26a07528" y="278.70223"/>
     <use style="fill:#bfbf00;stroke:#bfbf00;" x="519.25883" xlink:href="#maf26a07528" y="278.70223"/>
     <use style="fill:#bfbf00;stroke:#bfbf00;" x="470.12741" xlink:href="#maf26a07528" y="193.604115"/>
     <use style="fill:#bfbf00;stroke:#bfbf00;" x="371.864571" xlink:href="#maf26a07528" y="193.604115"/>
     <use style="fill:#bfbf00;stroke:#bfbf00;" x="420.995991" xlink:href="#maf26a07528" y="278.70223"/>
     <use style="fill:#bfbf00;stroke:#bfbf00;" x="420.995991" xlink:href="#maf26a07528" y="221.970153"/>
    </g>
   </g>
   <g id="matplotlib.axis_3">
    <g id="xtick_12">
     <g id="line2d_23">
      <g>
       <use style="stroke:#000000;stroke-width:0.8;" x="324.126811" xlink:href="#m2c7e67f6eb" y="284.375438"/>
      </g>
     </g>
     <g id="text_30">
      <!-- −6000 -->
      <g transform="translate(307.211968 298.973875)scale(0.1 -0.1)">
       <use xlink:href="#DejaVuSans-8722"/>
       <use x="83.789062" xlink:href="#DejaVuSans-54"/>
       <use x="147.412109" xlink:href="#DejaVuSans-48"/>
       <use x="211.035156" xlink:href="#DejaVuSans-48"/>
       <use x="274.658203" xlink:href="#DejaVuSans-48"/>
      </g>
     </g>
    </g>
    <g id="xtick_13">
     <g id="line2d_24">
      <g>
       <use style="stroke:#000000;stroke-width:0.8;" x="356.416538" xlink:href="#m2c7e67f6eb" y="284.375438"/>
      </g>
     </g>
     <g id="text_31">
      <!-- −4000 -->
      <g transform="translate(339.501694 298.973875)scale(0.1 -0.1)">
       <use xlink:href="#DejaVuSans-8722"/>
       <use x="83.789062" xlink:href="#DejaVuSans-52"/>
       <use x="147.412109" xlink:href="#DejaVuSans-48"/>
       <use x="211.035156" xlink:href="#DejaVuSans-48"/>
       <use x="274.658203" xlink:href="#DejaVuSans-48"/>
      </g>
     </g>
    </g>
    <g id="xtick_14">
     <g id="line2d_25">
      <g>
       <use style="stroke:#000000;stroke-width:0.8;" x="388.706264" xlink:href="#m2c7e67f6eb" y="284.375438"/>
      </g>
     </g>
     <g id="text_32">
      <!-- −2000 -->
      <defs>
       <path d="M 19.1875 8.296875 
L 53.609375 8.296875 
L 53.609375 0 
L 7.328125 0 
L 7.328125 8.296875 
Q 12.9375 14.109375 22.625 23.890625 
Q 32.328125 33.6875 34.8125 36.53125 
Q 39.546875 41.84375 41.421875 45.53125 
Q 43.3125 49.21875 43.3125 52.78125 
Q 43.3125 58.59375 39.234375 62.25 
Q 35.15625 65.921875 28.609375 65.921875 
Q 23.96875 65.921875 18.8125 64.3125 
Q 13.671875 62.703125 7.8125 59.421875 
L 7.8125 69.390625 
Q 13.765625 71.78125 18.9375 73 
Q 24.125 74.21875 28.421875 74.21875 
Q 39.75 74.21875 46.484375 68.546875 
Q 53.21875 62.890625 53.21875 53.421875 
Q 53.21875 48.921875 51.53125 44.890625 
Q 49.859375 40.875 45.40625 35.40625 
Q 44.1875 33.984375 37.640625 27.21875 
Q 31.109375 20.453125 19.1875 8.296875 
z
" id="DejaVuSans-50"/>
      </defs>
      <g transform="translate(371.791421 298.973875)scale(0.1 -0.1)">
       <use xlink:href="#DejaVuSans-8722"/>
       <use x="83.789062" xlink:href="#DejaVuSans-50"/>
       <use x="147.412109" xlink:href="#DejaVuSans-48"/>
       <use x="211.035156" xlink:href="#DejaVuSans-48"/>
       <use x="274.658203" xlink:href="#DejaVuSans-48"/>
      </g>
     </g>
    </g>
    <g id="xtick_15">
     <g id="line2d_26">
      <g>
       <use style="stroke:#000000;stroke-width:0.8;" x="420.995991" xlink:href="#m2c7e67f6eb" y="284.375438"/>
      </g>
     </g>
     <g id="text_33">
      <!-- 0 -->
      <g transform="translate(417.814741 298.973875)scale(0.1 -0.1)">
       <use xlink:href="#DejaVuSans-48"/>
      </g>
     </g>
    </g>
    <g id="xtick_16">
     <g id="line2d_27">
      <g>
       <use style="stroke:#000000;stroke-width:0.8;" x="453.285717" xlink:href="#m2c7e67f6eb" y="284.375438"/>
      </g>
     </g>
     <g id="text_34">
      <!-- 2000 -->
      <g transform="translate(440.560717 298.973875)scale(0.1 -0.1)">
       <use xlink:href="#DejaVuSans-50"/>
       <use x="63.623047" xlink:href="#DejaVuSans-48"/>
       <use x="127.246094" xlink:href="#DejaVuSans-48"/>
       <use x="190.869141" xlink:href="#DejaVuSans-48"/>
      </g>
     </g>
    </g>
    <g id="xtick_17">
     <g id="line2d_28">
      <g>
       <use style="stroke:#000000;stroke-width:0.8;" x="485.575444" xlink:href="#m2c7e67f6eb" y="284.375438"/>
      </g>
     </g>
     <g id="text_35">
      <!-- 4000 -->
      <g transform="translate(472.850444 298.973875)scale(0.1 -0.1)">
       <use xlink:href="#DejaVuSans-52"/>
       <use x="63.623047" xlink:href="#DejaVuSans-48"/>
       <use x="127.246094" xlink:href="#DejaVuSans-48"/>
       <use x="190.869141" xlink:href="#DejaVuSans-48"/>
      </g>
     </g>
    </g>
    <g id="xtick_18">
     <g id="line2d_29">
      <g>
       <use style="stroke:#000000;stroke-width:0.8;" x="517.86517" xlink:href="#m2c7e67f6eb" y="284.375438"/>
      </g>
     </g>
     <g id="text_36">
      <!-- 6000 -->
      <g transform="translate(505.14017 298.973875)scale(0.1 -0.1)">
       <use xlink:href="#DejaVuSans-54"/>
       <use x="63.623047" xlink:href="#DejaVuSans-48"/>
       <use x="127.246094" xlink:href="#DejaVuSans-48"/>
       <use x="190.869141" xlink:href="#DejaVuSans-48"/>
      </g>
     </g>
    </g>
   </g>
   <g id="matplotlib.axis_4">
    <g id="ytick_12">
     <g id="line2d_30">
      <g>
       <use style="stroke:#000000;stroke-width:0.8;" x="312.906868" xlink:href="#m753e1ac7df" y="254.25988"/>
      </g>
     </g>
     <g id="text_37">
      <!-- −2000 -->
      <g transform="translate(272.07718 258.059099)scale(0.1 -0.1)">
       <use xlink:href="#DejaVuSans-8722"/>
       <use x="83.789062" xlink:href="#DejaVuSans-50"/>
       <use x="147.412109" xlink:href="#DejaVuSans-48"/>
       <use x="211.035156" xlink:href="#DejaVuSans-48"/>
       <use x="274.658203" xlink:href="#DejaVuSans-48"/>
      </g>
     </g>
    </g>
    <g id="ytick_13">
     <g id="line2d_31">
      <g>
       <use style="stroke:#000000;stroke-width:0.8;" x="312.906868" xlink:href="#m753e1ac7df" y="221.970153"/>
      </g>
     </g>
     <g id="text_38">
      <!-- 0 -->
      <g transform="translate(299.544368 225.769372)scale(0.1 -0.1)">
       <use xlink:href="#DejaVuSans-48"/>
      </g>
     </g>
    </g>
    <g id="ytick_14">
     <g id="line2d_32">
      <g>
       <use style="stroke:#000000;stroke-width:0.8;" x="312.906868" xlink:href="#m753e1ac7df" y="189.680427"/>
      </g>
     </g>
     <g id="text_39">
      <!-- 2000 -->
      <g transform="translate(280.456868 193.479646)scale(0.1 -0.1)">
       <use xlink:href="#DejaVuSans-50"/>
       <use x="63.623047" xlink:href="#DejaVuSans-48"/>
       <use x="127.246094" xlink:href="#DejaVuSans-48"/>
       <use x="190.869141" xlink:href="#DejaVuSans-48"/>
      </g>
     </g>
    </g>
    <g id="ytick_15">
     <g id="line2d_33">
      <g>
       <use style="stroke:#000000;stroke-width:0.8;" x="312.906868" xlink:href="#m753e1ac7df" y="157.3907"/>
      </g>
     </g>
     <g id="text_40">
      <!-- 4000 -->
      <g transform="translate(280.456868 161.189919)scale(0.1 -0.1)">
       <use xlink:href="#DejaVuSans-52"/>
       <use x="63.623047" xlink:href="#DejaVuSans-48"/>
       <use x="127.246094" xlink:href="#DejaVuSans-48"/>
       <use x="190.869141" xlink:href="#DejaVuSans-48"/>
      </g>
     </g>
    </g>
    <g id="ytick_16">
     <g id="line2d_34">
      <g>
       <use style="stroke:#000000;stroke-width:0.8;" x="312.906868" xlink:href="#m753e1ac7df" y="125.100974"/>
      </g>
     </g>
     <g id="text_41">
      <!-- 6000 -->
      <g transform="translate(280.456868 128.900193)scale(0.1 -0.1)">
       <use xlink:href="#DejaVuSans-54"/>
       <use x="63.623047" xlink:href="#DejaVuSans-48"/>
       <use x="127.246094" xlink:href="#DejaVuSans-48"/>
       <use x="190.869141" xlink:href="#DejaVuSans-48"/>
      </g>
     </g>
    </g>
   </g>
   <g id="LineCollection_12">
    <path clip-path="url(#pa8b5a43271)" d="M 420.995991 108.506 
L 420.266451 109.7696 
L 419.527091 111.05021 
L 418.777785 112.348045 
L 418.018416 113.663312 
L 417.248867 114.996209 
L 416.469031 116.346924 
L 415.678805 117.715637 
L 414.878092 119.102512 
L 414.066804 120.507704 
L 413.244861 121.931352 
L 412.41219 123.37358 
L 411.568729 124.834496 
L 410.714426 126.314192 
L 409.84924 127.812739 
L 408.97314 129.330188 
L 408.08611 130.86657 
L 407.188145 132.421891 
L 406.279255 133.996134 
L 405.359465 135.589258 
L 404.428814 137.201192 
L 403.48736 138.831839 
L 402.535174 140.481072 
L 401.572349 142.148735 
L 400.598993 143.834636 
L 399.615235 145.538555 
L 398.621223 147.260235 
L 397.617124 148.999385 
L 396.603127 150.755679 
L 395.579442 152.528753 
L 394.546299 154.318209 
L 393.503951 156.12361 
L 392.452671 157.944481 
L 391.392755 159.780309 
L 390.324519 161.630547 
L 389.248303 163.494608 
L 388.164466 165.371868 
L 387.073389 167.26167 
L 385.975471 169.16332 
L 384.871132 171.076092 
L 383.76081 172.999224 
L 382.644963 174.931929 
L 381.524061 176.873387 
L 380.398594 178.822753 
L 379.269064 180.779157 
L 378.135985 182.741707 
L 376.999885 184.709491 
L 375.861298 186.681582 
L 374.720768 188.657036 
L 373.578848 190.634901 
L 372.43609 192.614216 
L 371.293053 194.594014 
L 370.150295 196.573329 
L 369.008374 198.551194 
L 367.867845 200.526648 
L 366.729258 202.498739 
L 365.593157 204.466523 
L 364.460078 206.429073 
L 363.330548 208.385477 
L 362.205081 210.334843 
L 361.08418 212.276301 
L 359.968332 214.209006 
L 358.858011 216.132139 
L 357.753672 218.04491 
L 356.655754 219.94656 
L 355.564676 221.836362 
L 354.480839 223.713622 
L 353.404623 225.577683 
L 352.336388 227.427921 
L 351.276472 229.26375 
L 350.225191 231.08462 
L 349.182843 232.890021 
L 348.1497 234.679477 
L 347.126015 236.452551 
L 346.112018 238.208845 
L 345.107919 239.947995 
L 344.113907 241.669675 
L 343.130149 243.373594 
L 342.156793 245.059496 
L 341.193968 246.727158 
L 340.241783 248.376391 
L 339.300328 250.007038 
L 338.369678 251.618973 
L 337.449887 253.212096 
L 336.540997 254.78634 
L 335.643032 256.341661 
L 334.756002 257.878042 
L 333.879903 259.395491 
L 333.014716 260.894038 
L 332.160413 262.373734 
L 331.316953 263.83465 
L 330.484282 265.276879 
L 329.662338 266.700526 
L 328.851051 268.105718 
L 328.050338 269.492593 
L 327.260111 270.861306 
L 326.480275 272.212022 
L 325.710727 273.544919 
L 324.951357 274.860186 
L 324.202052 276.158021 
L 323.462691 277.438631 
L 322.733152 278.70223 
" style="fill:none;stroke:#008000;stroke-width:1.5;"/>
    <path clip-path="url(#pa8b5a43271)" d="M 322.733152 278.70223 
L 324.192231 278.70223 
L 325.670952 278.70223 
L 327.169562 278.70223 
L 328.688302 278.70223 
L 330.227399 278.70223 
L 331.787071 278.70223 
L 333.367524 278.70223 
L 334.96895 278.70223 
L 336.591525 278.70223 
L 338.235412 278.70223 
L 339.900754 278.70223 
L 341.587675 278.70223 
L 343.296281 278.70223 
L 345.026653 278.70223 
L 346.778853 278.70223 
L 348.552913 278.70223 
L 350.348843 278.70223 
L 352.166623 278.70223 
L 354.006204 278.70223 
L 355.867505 278.70223 
L 357.750414 278.70223 
L 359.654785 278.70223 
L 361.580435 278.70223 
L 363.527147 278.70223 
L 365.494662 278.70223 
L 367.482687 278.70223 
L 369.490885 278.70223 
L 371.518878 278.70223 
L 373.566249 278.70223 
L 375.632534 278.70223 
L 377.717231 278.70223 
L 379.819792 278.70223 
L 381.939624 278.70223 
L 384.076095 278.70223 
L 386.228526 278.70223 
L 388.3962 278.70223 
L 390.578356 278.70223 
L 392.774192 278.70223 
L 394.98287 278.70223 
L 397.203512 278.70223 
L 399.435208 278.70223 
L 401.67701 278.70223 
L 403.927944 278.70223 
L 406.187005 278.70223 
L 408.453162 278.70223 
L 410.725364 278.70223 
L 413.002538 278.70223 
L 415.283596 278.70223 
L 417.567438 278.70223 
L 419.852954 278.70223 
L 422.139028 278.70223 
L 424.424543 278.70223 
L 426.708385 278.70223 
L 428.989443 278.70223 
L 431.266617 278.70223 
L 433.538819 278.70223 
L 435.804977 278.70223 
L 438.064037 278.70223 
L 440.314971 278.70223 
L 442.556774 278.70223 
L 444.788469 278.70223 
L 447.009112 278.70223 
L 449.217789 278.70223 
L 451.413626 278.70223 
L 453.595781 278.70223 
L 455.763455 278.70223 
L 457.915887 278.70223 
L 460.052357 278.70223 
L 462.17219 278.70223 
L 464.27475 278.70223 
L 466.359447 278.70223 
L 468.425733 278.70223 
L 470.473103 278.70223 
L 472.501097 278.70223 
L 474.509294 278.70223 
L 476.497319 278.70223 
L 478.464835 278.70223 
L 480.411546 278.70223 
L 482.337197 278.70223 
L 484.241568 278.70223 
L 486.124477 278.70223 
L 487.985778 278.70223 
L 489.825358 278.70223 
L 491.643138 278.70223 
L 493.439068 278.70223 
L 495.213129 278.70223 
L 496.965328 278.70223 
L 498.695701 278.70223 
L 500.404306 278.70223 
L 502.091228 278.70223 
L 503.756569 278.70223 
L 505.400456 278.70223 
L 507.023032 278.70223 
L 508.624457 278.70223 
L 510.20491 278.70223 
L 511.764583 278.70223 
L 513.30368 278.70223 
L 514.822419 278.70223 
L 516.32103 278.70223 
L 517.799751 278.70223 
L 519.25883 278.70223 
" style="fill:none;stroke:#008000;stroke-width:1.5;"/>
    <path clip-path="url(#pa8b5a43271)" d="M 519.25883 278.70223 
L 518.52929 277.438631 
L 517.78993 276.158021 
L 517.040624 274.860186 
L 516.281255 273.544919 
L 515.511706 272.212022 
L 514.73187 270.861306 
L 513.941644 269.492593 
L 513.140931 268.105718 
L 512.329643 266.700526 
L 511.5077 265.276879 
L 510.675029 263.83465 
L 509.831568 262.373734 
L 508.977265 260.894038 
L 508.112079 259.395491 
L 507.235979 257.878042 
L 506.348949 256.341661 
L 505.450984 254.78634 
L 504.542094 253.212096 
L 503.622304 251.618973 
L 502.691653 250.007038 
L 501.750199 248.376391 
L 500.798013 246.727158 
L 499.835188 245.059496 
L 498.861832 243.373594 
L 497.878074 241.669675 
L 496.884062 239.947995 
L 495.879963 238.208845 
L 494.865967 236.452551 
L 493.842281 234.679477 
L 492.809138 232.890021 
L 491.76679 231.08462 
L 490.71551 229.26375 
L 489.655594 227.427921 
L 488.587358 225.577683 
L 487.511142 223.713622 
L 486.427306 221.836362 
L 485.336228 219.94656 
L 484.23831 218.04491 
L 483.133971 216.132139 
L 482.02365 214.209006 
L 480.907802 212.276301 
L 479.786901 210.334843 
L 478.661434 208.385477 
L 477.531903 206.429073 
L 476.398824 204.466523 
L 475.262724 202.498739 
L 474.124137 200.526648 
L 472.983608 198.551194 
L 471.841687 196.573329 
L 470.698929 194.594014 
L 469.555892 192.614216 
L 468.413134 190.634901 
L 467.271213 188.657036 
L 466.130684 186.681582 
L 464.992097 184.709491 
L 463.855996 182.741707 
L 462.722917 180.779157 
L 461.593387 178.822753 
L 460.46792 176.873387 
L 459.347019 174.931929 
L 458.231171 172.999224 
L 457.12085 171.076092 
L 456.016511 169.16332 
L 454.918593 167.26167 
L 453.827515 165.371868 
L 452.743678 163.494608 
L 451.667462 161.630547 
L 450.599227 159.780309 
L 449.539311 157.944481 
L 448.488031 156.12361 
L 447.445682 154.318209 
L 446.412539 152.528753 
L 445.388854 150.755679 
L 444.374857 148.999385 
L 443.370758 147.260235 
L 442.376746 145.538555 
L 441.392988 143.834636 
L 440.419632 142.148735 
L 439.456807 140.481072 
L 438.504622 138.831839 
L 437.563167 137.201192 
L 436.632517 135.589258 
L 435.712726 133.996134 
L 434.803837 132.421891 
L 433.905872 130.86657 
L 433.018841 129.330188 
L 432.142742 127.812739 
L 431.277555 126.314192 
L 430.423252 124.834496 
L 429.579792 123.37358 
L 428.747121 121.931352 
L 427.925178 120.507704 
L 427.11389 119.102512 
L 426.313177 117.715637 
L 425.52295 116.346924 
L 424.743114 114.996209 
L 423.973566 113.663312 
L 423.214196 112.348045 
L 422.464891 111.05021 
L 421.72553 109.7696 
L 420.995991 108.506 
" style="fill:none;stroke:#008000;stroke-width:1.5;"/>
   </g>
   <g id="LineCollection_13">
    <path clip-path="url(#pa8b5a43271)" d="M 315.910972 308.071376 
L 326.209555 291.848295 
L 340.235704 291.588275 
L 353.377144 291.117152 
L 372.811793 290.154419 
L 394.629745 289.126409 
L 407.096721 288.748538 
L 419.60536 288.59686 
L 432.117526 288.693914 
L 444.598211 289.025352 
L 459.719209 289.671651 
L 498.283347 291.484469 
L 511.644602 291.796863 
L 516.792482 291.858022 
L 516.792482 291.858022 
" style="fill:none;stroke:#d3d3d3;stroke-width:1.5;"/>
    <path clip-path="url(#pa8b5a43271)" d="M 315.193834 298.772152 
L 318.056172 297.586787 
L 323.832445 287.005979 
L 332.942303 286.479161 
L 340.643492 285.804281 
L 350.45296 284.681826 
L 385.107545 280.39641 
L 394.156011 279.581193 
L 403.143406 278.983508 
L 412.082684 278.619695 
L 420.995991 278.497648 
L 429.909298 278.619695 
L 438.848576 278.983508 
L 447.83597 279.581193 
L 456.884436 280.39641 
L 467.509848 281.581182 
L 482.6664 283.531665 
L 497.237732 285.36282 
L 505.291233 286.176787 
L 512.618286 286.717506 
L 522.260254 287.178235 
L 525.1636 287.294148 
L 525.1636 287.294148 
" style="fill:none;stroke:#d3d3d3;stroke-width:1.5;"/>
    <path clip-path="url(#pa8b5a43271)" d="M 315.491556 288.752313 
L 321.174808 284.644894 
L 323.338822 281.181341 
L 327.07361 280.747269 
L 331.490552 279.866883 
L 338.006872 278.215628 
L 354.60185 273.854102 
L 362.648927 271.973975 
L 370.511049 270.349274 
L 378.211628 268.976349 
L 385.777203 267.844835 
L 393.233832 266.943421 
L 400.606244 266.261983 
L 407.917815 265.792419 
L 415.190832 265.528979 
L 422.446857 265.468387 
L 429.707122 265.609886 
L 436.992941 265.955243 
L 444.32612 266.50873 
L 451.729342 267.277062 
L 459.226503 268.269208 
L 466.842891 269.495912 
L 474.604944 270.968485 
L 482.538677 272.69566 
L 490.663488 274.674756 
L 502.314968 277.767441 
L 510.501429 279.866883 
L 514.918371 280.747269 
L 518.653159 281.181341 
L 524.861103 281.478502 
L 529.509158 281.770259 
L 529.509158 281.770259 
" style="fill:none;stroke:#d3d3d3;stroke-width:1.5;"/>
    <path clip-path="url(#pa8b5a43271)" d="M 317.591197 275.977826 
L 320.382236 273.464004 
L 322.738818 271.548805 
L 325.597846 269.508491 
L 327.950565 268.042805 
L 330.712868 266.518943 
L 333.814236 265.007923 
L 337.117793 263.582434 
L 342.184565 261.681038 
L 347.188694 260.059423 
L 353.656035 258.241632 
L 359.902026 256.717229 
L 367.465618 255.123196 
L 374.825922 253.808212 
L 382.034985 252.729859 
L 390.538322 251.710388 
L 398.925886 250.960814 
L 407.235505 250.45983 
L 415.498812 250.193938 
L 423.744083 250.156171 
L 431.998339 250.345549 
L 440.28922 250.76701 
L 448.646976 251.431776 
L 457.10698 252.358342 
L 464.266636 253.350241 
L 471.561174 254.566558 
L 479.035955 256.042395 
L 485.188026 257.447906 
L 491.539553 259.107959 
L 496.457904 260.571878 
L 501.496592 262.281877 
L 506.542318 264.281085 
L 509.762867 265.75675 
L 512.709482 267.284344 
L 516.394136 269.508491 
L 519.253164 271.548805 
L 522.333069 274.091688 
L 523.724713 275.346829 
L 532.369984 274.896242 
L 532.369984 274.896242 
" style="fill:none;stroke:#d3d3d3;stroke-width:1.5;"/>
    <path clip-path="url(#pa8b5a43271)" d="M 325.36375 256.448842 
L 328.100852 254.181509 
L 331.028416 252.004826 
L 334.191553 249.90277 
L 337.616102 247.876334 
L 341.298046 245.944373 
L 345.201458 244.137699 
L 349.267645 242.488072 
L 353.430969 241.017605 
L 357.633321 239.73355 
L 363.22573 238.298491 
L 368.756241 237.142643 
L 374.205364 236.217229 
L 380.905866 235.315992 
L 388.81334 234.519354 
L 396.616269 233.95689 
L 405.63531 233.530034 
L 415.882484 233.291453 
L 426.109497 233.291453 
L 436.356671 233.530034 
L 445.375712 233.95689 
L 453.178642 234.519354 
L 461.086115 235.315992 
L 467.786618 236.217229 
L 473.235741 237.142643 
L 478.766251 238.298491 
L 484.358661 239.73355 
L 488.561012 241.017605 
L 492.724336 242.488072 
L 496.790523 244.137699 
L 500.693935 245.944373 
L 504.375879 247.876334 
L 507.800428 249.90277 
L 510.963566 252.004826 
L 513.89113 254.181509 
L 516.628232 256.448842 
L 516.628232 256.448842 
" style="fill:none;stroke:#d3d3d3;stroke-width:1.5;"/>
    <path clip-path="url(#pa8b5a43271)" d="M 339.683829 227.88614 
L 343.091633 225.953733 
L 346.680216 224.214587 
L 350.471921 222.642362 
L 354.464531 221.230807 
L 358.635239 219.98479 
L 362.948384 218.911158 
L 367.364661 218.011657 
L 372.977006 217.121112 
L 378.645345 216.461322 
L 385.481013 215.915626 
L 393.476963 215.525627 
L 403.779905 215.269113 
L 418.69876 215.151821 
L 435.919295 215.236312 
L 447.371453 215.485993 
L 455.369759 215.845888 
L 462.209164 216.353493 
L 467.884562 216.971922 
L 473.511438 217.813395 
L 477.947704 218.670067 
L 482.290268 219.700026 
L 486.500226 220.903485 
L 490.540156 222.274337 
L 494.3832 223.806404 
L 498.021455 225.502277 
L 501.470985 227.382499 
L 502.308152 227.88614 
L 502.308152 227.88614 
" style="fill:none;stroke:#d3d3d3;stroke-width:1.5;"/>
    <path clip-path="url(#pa8b5a43271)" d="M 359.974186 191.262537 
L 361.830019 191.896184 
L 363.95774 192.375705 
L 366.961175 192.826426 
L 371.724401 193.295843 
L 381.916049 194.012279 
L 399.792154 195.071137 
L 410.288238 195.47395 
L 420.019325 195.618295 
L 429.766549 195.521443 
L 439.369901 195.201981 
L 451.388308 194.561895 
L 469.540263 193.354349 
L 475.030806 192.826426 
L 478.590232 192.267606 
L 480.652466 191.754255 
L 482.017796 191.262537 
L 482.017796 191.262537 
" style="fill:none;stroke:#d3d3d3;stroke-width:1.5;"/>
    <path clip-path="url(#pa8b5a43271)" d="M 381.872493 154.589443 
L 382.02362 156.518887 
L 382.374546 158.253256 
L 382.907751 159.819004 
L 383.607817 161.239114 
L 384.461149 162.533343 
L 385.455725 163.71849 
L 386.98328 165.153013 
L 388.720987 166.445134 
L 390.649709 167.614823 
L 393.303832 168.925816 
L 396.201202 170.084289 
L 399.315134 171.098026 
L 402.619667 171.96815 
L 406.798994 172.81812 
L 411.164579 173.447345 
L 415.661847 173.84602 
L 420.231644 174.006744 
L 424.811901 173.92629 
L 429.340106 173.606289 
L 433.755897 173.052895 
L 438.003061 172.275376 
L 442.030353 171.283594 
L 445.184487 170.2985 
L 448.127257 169.169347 
L 450.832256 167.889887 
L 452.806031 166.74839 
L 454.593182 165.488505 
L 456.175222 164.091808 
L 457.530833 162.533343 
L 458.384164 161.239114 
L 459.08423 159.819004 
L 459.617436 158.253256 
L 459.968362 156.518887 
L 460.119489 154.589443 
L 460.119489 154.589443 
" style="fill:none;stroke:#d3d3d3;stroke-width:1.5;"/>
    <path clip-path="url(#pa8b5a43271)" d="M 400.202432 126.382153 
L 399.875332 128.677379 
L 399.754579 130.811407 
L 399.832529 132.794968 
L 400.100749 134.640283 
L 400.550668 136.359841 
L 401.174023 137.965391 
L 401.963124 139.467094 
L 402.910947 140.872834 
L 404.309149 142.502425 
L 405.933345 143.992256 
L 407.771001 145.336192 
L 409.807142 146.519541 
L 412.022192 147.52039 
L 414.389984 148.312355 
L 416.876544 148.868682 
L 419.440269 149.167133 
L 422.033808 149.194517 
L 424.607415 148.949579 
L 427.112958 148.443279 
L 429.507479 147.696375 
L 431.755411 146.735113 
L 433.829084 145.586319 
L 435.707751 144.273067 
L 437.375691 142.811641 
L 438.820044 141.209935 
L 439.806521 139.827277 
L 440.635936 138.3502 
L 441.301423 136.771487 
L 441.795456 135.081483 
L 442.109899 133.268766 
L 442.236222 131.320941 
L 442.165905 129.225617 
L 441.891035 126.971563 
L 441.789549 126.382153 
L 441.789549 126.382153 
" style="fill:none;stroke:#d3d3d3;stroke-width:1.5;"/>
    <path clip-path="url(#pa8b5a43271)" d="M 413.884155 108.276168 
L 413.525762 110.244523 
L 413.430987 112.00536 
L 413.565644 113.367526 
L 413.899867 114.567541 
L 414.428475 115.621968 
L 415.148061 116.561373 
L 416.210291 117.552794 
L 417.56143 118.518289 
L 418.801428 119.190332 
L 419.985522 119.590232 
L 420.995991 119.702559 
L 422.006459 119.590232 
L 423.190553 119.190332 
L 424.430552 118.518289 
L 425.929212 117.43118 
L 426.958437 116.432634 
L 427.650746 115.479257 
L 428.151883 114.40555 
L 428.457905 113.183088 
L 428.563695 111.797118 
L 428.46622 110.244523 
L 428.107826 108.276168 
L 428.107826 108.276168 
" style="fill:none;stroke:#d3d3d3;stroke-width:1.5;"/>
    <path clip-path="url(#pa8b5a43271)" d="M 417.638897 98.967308 
L 417.638897 98.967308 
L 417.638897 98.967308 
" style="fill:none;stroke:#d3d3d3;stroke-width:1.5;"/>
    <path clip-path="url(#pa8b5a43271)" d="M 315.910972 308.071376 
L 315.491764 304.966924 
L 315.247254 301.267059 
L 315.19737 296.867911 
L 315.378016 290.877983 
L 315.714909 285.770008 
L 316.106297 282.543214 
L 316.802061 278.960149 
L 317.591197 275.977826 
L 319.037504 271.555403 
L 320.939946 266.584043 
L 323.296513 261.025856 
L 326.886692 253.194202 
L 331.210765 244.31816 
L 336.283838 234.36452 
L 343.338777 221.055642 
L 351.325393 206.516951 
L 359.974186 191.262537 
L 368.894606 175.991354 
L 377.661765 161.423615 
L 385.922595 148.124249 
L 393.461308 136.412456 
L 400.202432 126.382153 
L 405.228814 119.276929 
L 409.768514 113.255398 
L 413.091744 109.189773 
L 415.42669 106.571485 
L 411.580384 99.62635 
L 415.695866 99.201518 
L 417.638897 98.967308 
L 417.638897 98.967308 
" style="fill:none;stroke:#d3d3d3;stroke-width:1.5;"/>
    <path clip-path="url(#pa8b5a43271)" d="M 341.383693 291.555718 
L 338.618934 290.253698 
L 336.273861 288.918517 
L 334.263729 287.542585 
L 332.534086 286.117967 
L 331.052738 284.635071 
L 329.808619 283.07888 
L 329.043748 281.844054 
L 328.47577 280.503278 
L 328.297757 279.470419 
L 328.329201 278.854711 
L 328.494178 278.109807 
L 329.540893 274.821571 
L 330.245521 271.428209 
L 330.922784 269.208378 
L 332.229114 265.75675 
L 334.86855 259.633362 
L 339.22461 250.259549 
L 345.02065 238.340165 
L 353.448502 221.568468 
L 364.100757 200.919389 
L 376.852495 176.7325 
L 388.755148 154.601695 
L 399.036271 135.936645 
L 405.677786 124.302573 
L 410.094582 116.954818 
L 413.428286 111.797118 
L 415.813575 108.429315 
L 417.349273 106.444024 
L 414.237631 101.559314 
L 415.812866 100.445157 
L 417.638897 98.967308 
L 417.638897 98.967308 
" style="fill:none;stroke:#d3d3d3;stroke-width:1.5;"/>
    <path clip-path="url(#pa8b5a43271)" d="M 359.69148 290.826239 
L 357.986112 289.648436 
L 356.514784 288.419945 
L 355.259121 287.130944 
L 354.211875 285.767722 
L 353.375945 284.310799 
L 352.763949 282.732401 
L 352.397159 280.993583 
L 352.301311 279.042417 
L 352.495165 276.817016 
L 352.969032 274.259804 
L 354.465575 268.113603 
L 356.046082 261.07811 
L 358.178923 251.328997 
L 359.838066 245.080552 
L 361.831974 238.629247 
L 364.145055 231.922105 
L 367.296476 223.491523 
L 371.424324 213.093811 
L 377.336476 198.823437 
L 387.567679 174.79905 
L 409.375224 124.204423 
L 413.152246 116.0707 
L 415.38673 111.73618 
L 417.589114 108.0123 
L 418.312356 106.917044 
L 415.884187 103.043655 
L 417.018792 100.50791 
L 417.638897 98.967308 
L 417.638897 98.967308 
" style="fill:none;stroke:#d3d3d3;stroke-width:1.5;"/>
    <path clip-path="url(#pa8b5a43271)" d="M 379.552549 289.806935 
L 378.454855 288.343862 
L 377.558101 286.784439 
L 376.853761 285.116666 
L 376.336813 283.326667 
L 376.00303 281.399075 
L 375.846301 279.318006 
L 375.893665 276.279484 
L 376.193553 272.918169 
L 376.976526 267.272267 
L 380.880749 242.499427 
L 382.479385 233.922 
L 384.389011 225.055964 
L 386.622222 215.845888 
L 389.548969 204.820291 
L 393.7085 190.161834 
L 403.345266 157.42062 
L 411.873034 127.897231 
L 414.684273 118.493939 
L 416.461654 113.266703 
L 417.701176 110.240789 
L 418.971034 107.711381 
L 417.316079 104.579382 
L 417.638897 98.967308 
L 417.638897 98.967308 
" style="fill:none;stroke:#d3d3d3;stroke-width:1.5;"/>
    <path clip-path="url(#pa8b5a43271)" d="M 400.162097 288.933489 
L 399.501631 286.653697 
L 399.039442 284.160606 
L 398.759056 281.443389 
L 398.634857 277.72121 
L 398.753451 272.775648 
L 399.205695 265.417246 
L 400.854098 244.148026 
L 402.128194 230.102379 
L 403.475311 217.800583 
L 405.116416 204.869152 
L 407.45986 188.274071 
L 416.675789 124.779771 
L 418.224109 114.356791 
L 419.030553 110.589098 
L 419.507023 109.094129 
L 420.01414 107.872257 
L 418.820166 105.793892 
L 417.638897 98.967308 
L 417.638897 98.967308 
" style="fill:none;stroke:#d3d3d3;stroke-width:1.5;"/>
    <path clip-path="url(#pa8b5a43271)" d="M 420.995991 288.595304 
L 420.995991 108.506 
L 418.873182 102.684617 
L 417.638897 98.967308 
L 417.638897 98.967308 
" style="fill:none;stroke:#d3d3d3;stroke-width:1.5;"/>
    <path clip-path="url(#pa8b5a43271)" d="M 441.829884 288.933489 
L 442.49035 286.653697 
L 442.952539 284.160606 
L 443.232925 281.443389 
L 443.357124 277.72121 
L 443.238531 272.775648 
L 442.786287 265.417246 
L 441.137883 244.148026 
L 439.863788 230.102379 
L 438.51667 217.800583 
L 436.875565 204.869152 
L 434.532121 188.274071 
L 425.316193 124.779771 
L 423.767872 114.356791 
L 422.961428 110.589098 
L 422.484959 109.094129 
L 421.461324 106.790356 
L 417.638897 98.967308 
L 417.638897 98.967308 
" style="fill:none;stroke:#d3d3d3;stroke-width:1.5;"/>
    <path clip-path="url(#pa8b5a43271)" d="M 462.439433 289.806935 
L 463.537127 288.343862 
L 464.43388 286.784439 
L 465.13822 285.116666 
L 465.655168 283.326667 
L 465.988952 281.399075 
L 466.14568 279.318006 
L 466.098317 276.279484 
L 465.798428 272.918169 
L 465.015455 267.272267 
L 461.111233 242.499427 
L 459.512597 233.922 
L 457.60297 225.055964 
L 455.369759 215.845888 
L 452.443013 204.820291 
L 448.283481 190.161834 
L 438.646715 157.42062 
L 430.118947 127.897231 
L 427.307708 118.493939 
L 425.530327 113.266703 
L 424.290805 110.240789 
L 423.020948 107.711381 
L 421.128633 104.552598 
L 417.638897 98.967308 
L 417.638897 98.967308 
" style="fill:none;stroke:#d3d3d3;stroke-width:1.5;"/>
    <path clip-path="url(#pa8b5a43271)" d="M 482.300502 290.826239 
L 484.00587 289.648436 
L 485.477197 288.419945 
L 486.732861 287.130944 
L 487.780106 285.767722 
L 488.616036 284.310799 
L 489.228033 282.732401 
L 489.594823 280.993583 
L 489.69067 279.042417 
L 489.496816 276.817016 
L 489.02295 274.259804 
L 487.526407 268.113603 
L 485.9459 261.07811 
L 483.813059 251.328997 
L 482.153915 245.080552 
L 480.160008 238.629247 
L 477.846926 231.922105 
L 474.695505 223.491523 
L 470.567658 213.093811 
L 464.655505 198.823437 
L 454.424302 174.79905 
L 432.616758 124.204423 
L 428.839736 116.0707 
L 426.605252 111.73618 
L 424.402867 108.0123 
L 422.256742 104.912402 
L 418.25778 99.756897 
L 417.638897 98.967308 
L 417.638897 98.967308 
" style="fill:none;stroke:#d3d3d3;stroke-width:1.5;"/>
    <path clip-path="url(#pa8b5a43271)" d="M 500.608288 291.555718 
L 503.373048 290.253698 
L 505.718121 288.918517 
L 507.728253 287.542585 
L 509.457895 286.117967 
L 510.939244 284.635071 
L 512.183362 283.07888 
L 512.948234 281.844054 
L 513.516211 280.503278 
L 513.694224 279.470419 
L 513.66278 278.854711 
L 513.497803 278.109807 
L 512.451088 274.821571 
L 511.74646 271.428209 
L 511.069198 269.208378 
L 509.762867 265.75675 
L 507.123432 259.633362 
L 502.767372 250.259549 
L 496.971332 238.340165 
L 488.54348 221.568468 
L 477.891225 200.919389 
L 465.139487 176.7325 
L 453.236834 154.601695 
L 442.95571 135.936645 
L 436.314195 124.302573 
L 431.897399 116.954818 
L 428.563695 111.797118 
L 426.178407 108.429315 
L 423.891312 105.528851 
L 421.70393 103.060928 
L 418.287151 99.59909 
L 417.638897 98.967308 
L 417.638897 98.967308 
" style="fill:none;stroke:#d3d3d3;stroke-width:1.5;"/>
    <path clip-path="url(#pa8b5a43271)" d="M 516.792482 291.858022 
L 519.615613 290.688408 
L 521.946997 289.49299 
L 523.900602 288.256926 
L 525.550625 286.965111 
L 526.945145 285.601512 
L 528.115655 284.149127 
L 529.087466 282.591759 
L 530.081593 280.484994 
L 532.369984 274.896242 
L 524.081974 274.921533 
L 522.52153 270.365508 
L 520.50547 265.251008 
L 518.035131 259.540085 
L 514.299863 251.504306 
L 509.82668 242.413719 
L 503.470523 230.086259 
L 496.084256 216.325696 
L 487.839831 201.479701 
L 479.053154 186.136997 
L 470.138149 171.02481 
L 461.506588 156.82852 
L 453.46989 144.03532 
L 446.194711 132.882541 
L 440.742694 124.871814 
L 435.818172 117.987577 
L 431.36854 112.17705 
L 428.107826 108.276168 
L 425.075551 105.028636 
L 422.9306 103.007257 
L 420.216054 100.792975 
L 417.638897 98.967308 
L 417.638897 98.967308 
" style="fill:none;stroke:#d3d3d3;stroke-width:1.5;"/>
   </g>
   <g id="LineCollection_14"/>
   <g id="LineCollection_15">
    <path clip-path="url(#pa8b5a43271)" d="M 322.158136 281.060976 
L 322.198721 281.017507 
L 323.080935 279.907898 
L 322.765992 280.077711 
" style="fill:none;stroke:#472d7b;stroke-width:1.5;"/>
    <path clip-path="url(#pa8b5a43271)" d="M 413.690695 101.587531 
L 416.78895 106.496511 
L 416.971067 106.841323 
L 416.665366 107.174438 
L 416.665347 107.10688 
L 416.666148 107.038414 
L 416.667758 106.969065 
L 416.670166 106.898853 
L 416.673364 106.827799 
L 416.677961 106.755177 
" style="fill:none;stroke:#472d7b;stroke-width:1.5;"/>
   </g>
   <g id="LineCollection_16">
    <path clip-path="url(#pa8b5a43271)" d="M 413.698497 101.600353 
L 416.258584 105.656642 
L 417.027053 106.784166 
L 417.349452 106.434722 
" style="fill:none;stroke:#3b528b;stroke-width:1.5;"/>
   </g>
   <g id="LineCollection_17">
    <path clip-path="url(#pa8b5a43271)" d="M 413.706299 101.613175 
L 415.728218 104.816773 
L 417.08854 106.707591 
L 417.349646 106.424582 
" style="fill:none;stroke:#2c728e;stroke-width:1.5;"/>
   </g>
   <g id="LineCollection_18">
    <path clip-path="url(#pa8b5a43271)" d="M 413.714101 101.625997 
L 415.197853 103.976904 
L 417.150028 106.631016 
L 417.34984 106.414442 
" style="fill:none;stroke:#21918c;stroke-width:1.5;"/>
   </g>
   <g id="LineCollection_19">
    <path clip-path="url(#pa8b5a43271)" d="M 413.721903 101.638819 
L 414.667487 103.137035 
L 417.211515 106.554441 
L 417.350034 106.404302 
" style="fill:none;stroke:#28ae80;stroke-width:1.5;"/>
   </g>
   <g id="LineCollection_20">
    <path clip-path="url(#pa8b5a43271)" d="M 413.729705 101.651641 
L 414.137122 102.297165 
L 417.273002 106.477866 
L 417.350228 106.394162 
" style="fill:none;stroke:#5ec962;stroke-width:1.5;"/>
   </g>
   <g id="LineCollection_21">
    <path clip-path="url(#pa8b5a43271)" d="M 415.481998 103.941659 
L 417.334489 106.401291 
L 417.350422 106.384022 
" style="fill:none;stroke:#addc30;stroke-width:1.5;"/>
   </g>
   <g id="LineCollection_22"/>
   <g id="patch_8">
    <path d="M 312.906868 284.375438 
L 312.906868 97.159585 
" style="fill:none;stroke:#000000;stroke-linecap:square;stroke-linejoin:miter;stroke-width:0.8;"/>
   </g>
   <g id="patch_9">
    <path d="M 529.085114 284.375438 
L 529.085114 97.159585 
" style="fill:none;stroke:#000000;stroke-linecap:square;stroke-linejoin:miter;stroke-width:0.8;"/>
   </g>
   <g id="patch_10">
    <path d="M 312.906868 284.375438 
L 529.085114 284.375438 
" style="fill:none;stroke:#000000;stroke-linecap:square;stroke-linejoin:miter;stroke-width:0.8;"/>
   </g>
   <g id="patch_11">
    <path d="M 312.906868 97.159585 
L 529.085114 97.159585 
" style="fill:none;stroke:#000000;stroke-linecap:square;stroke-linejoin:miter;stroke-width:0.8;"/>
   </g>
   <g id="text_42">
    <!-- 0.875 -->
    <g transform="translate(420.995991 108.506)scale(0.1 -0.1)">
     <use xlink:href="#DejaVuSans-48"/>
     <use x="63.623047" xlink:href="#DejaVuSans-46"/>
     <use x="95.410156" xlink:href="#DejaVuSans-56"/>
     <use x="159.033203" xlink:href="#DejaVuSans-55"/>
     <use x="222.65625" xlink:href="#DejaVuSans-53"/>
    </g>
   </g>
   <g id="text_43">
    <!-- 0.433 -->
    <g transform="translate(322.484056 278.730431)scale(0.1 -0.1)">
     <use xlink:href="#DejaVuSans-48"/>
     <use x="63.623047" xlink:href="#DejaVuSans-46"/>
     <use x="95.410156" xlink:href="#DejaVuSans-52"/>
     <use x="159.033203" xlink:href="#DejaVuSans-51"/>
     <use x="222.65625" xlink:href="#DejaVuSans-51"/>
    </g>
   </g>
   <g id="text_44">
    <!-- 0.471 -->
    <g transform="translate(519.782976 278.599524)scale(0.1 -0.1)">
     <use xlink:href="#DejaVuSans-48"/>
     <use x="63.623047" xlink:href="#DejaVuSans-46"/>
     <use x="95.410156" xlink:href="#DejaVuSans-52"/>
     <use x="159.033203" xlink:href="#DejaVuSans-55"/>
     <use x="222.65625" xlink:href="#DejaVuSans-49"/>
    </g>
   </g>
   <g id="text_45">
    <!-- 1.004 -->
    <g transform="translate(470.267581 193.295843)scale(0.1 -0.1)">
     <use xlink:href="#DejaVuSans-49"/>
     <use x="63.623047" xlink:href="#DejaVuSans-46"/>
     <use x="95.410156" xlink:href="#DejaVuSans-48"/>
     <use x="159.033203" xlink:href="#DejaVuSans-48"/>
     <use x="222.65625" xlink:href="#DejaVuSans-52"/>
    </g>
   </g>
   <g id="text_46">
    <!-- 1.004 -->
    <g transform="translate(371.724401 193.295843)scale(0.1 -0.1)">
     <use xlink:href="#DejaVuSans-49"/>
     <use x="63.623047" xlink:href="#DejaVuSans-46"/>
     <use x="95.410156" xlink:href="#DejaVuSans-48"/>
     <use x="159.033203" xlink:href="#DejaVuSans-48"/>
     <use x="222.65625" xlink:href="#DejaVuSans-52"/>
    </g>
   </g>
   <g id="text_47">
    <!-- 1.004 -->
    <g transform="translate(420.995991 278.497648)scale(0.1 -0.1)">
     <use xlink:href="#DejaVuSans-49"/>
     <use x="63.623047" xlink:href="#DejaVuSans-46"/>
     <use x="95.410156" xlink:href="#DejaVuSans-48"/>
     <use x="159.033203" xlink:href="#DejaVuSans-48"/>
     <use x="222.65625" xlink:href="#DejaVuSans-52"/>
    </g>
   </g>
   <g id="text_48">
    <!-- 0.915 -->
    <g transform="translate(420.995991 222.543369)scale(0.1 -0.1)">
     <use xlink:href="#DejaVuSans-48"/>
     <use x="63.623047" xlink:href="#DejaVuSans-46"/>
     <use x="95.410156" xlink:href="#DejaVuSans-57"/>
     <use x="159.033203" xlink:href="#DejaVuSans-49"/>
     <use x="222.65625" xlink:href="#DejaVuSans-53"/>
    </g>
   </g>
  </g>
  <g id="axes_3">
   <g id="patch_12">
    <path clip-path="url(#pd6d2004d73)" d="M 559.997504 351.120854 
L 559.997504 311.032518 
L 559.997504 70.502504 
L 559.997504 30.414169 
L 587.257573 30.414169 
L 587.257573 70.502504 
L 587.257573 311.032518 
L 587.257573 351.120854 
z
" style="fill:#ffffff;stroke:#ffffff;stroke-linejoin:miter;stroke-width:0.01;"/>
   </g>
   <g id="matplotlib.axis_5"/>
   <g id="matplotlib.axis_6">
    <g id="ytick_17">
     <g id="line2d_35">
      <defs>
       <path d="M 0 0 
L 3.5 0 
" id="m91137f8614" style="stroke:#000000;stroke-width:0.8;"/>
      </defs>
      <g>
       <use style="stroke:#000000;stroke-width:0.8;" x="587.257573" xlink:href="#m91137f8614" y="351.120854"/>
      </g>
     </g>
     <g id="text_49">
      <!-- −4 -->
      <g transform="translate(594.257573 354.920073)scale(0.1 -0.1)">
       <use xlink:href="#DejaVuSans-8722"/>
       <use x="83.789062" xlink:href="#DejaVuSans-52"/>
      </g>
     </g>
    </g>
    <g id="ytick_18">
     <g id="line2d_36">
      <g>
       <use style="stroke:#000000;stroke-width:0.8;" x="587.257573" xlink:href="#m91137f8614" y="311.032518"/>
      </g>
     </g>
     <g id="text_50">
      <!-- 0 -->
      <g transform="translate(594.257573 314.831737)scale(0.1 -0.1)">
       <use xlink:href="#DejaVuSans-48"/>
      </g>
     </g>
    </g>
    <g id="ytick_19">
     <g id="line2d_37">
      <g>
       <use style="stroke:#000000;stroke-width:0.8;" x="587.257573" xlink:href="#m91137f8614" y="270.944183"/>
      </g>
     </g>
     <g id="text_51">
      <!-- 4 -->
      <g transform="translate(594.257573 274.743401)scale(0.1 -0.1)">
       <use xlink:href="#DejaVuSans-52"/>
      </g>
     </g>
    </g>
    <g id="ytick_20">
     <g id="line2d_38">
      <g>
       <use style="stroke:#000000;stroke-width:0.8;" x="587.257573" xlink:href="#m91137f8614" y="230.855847"/>
      </g>
     </g>
     <g id="text_52">
      <!-- 8 -->
      <g transform="translate(594.257573 234.655066)scale(0.1 -0.1)">
       <use xlink:href="#DejaVuSans-56"/>
      </g>
     </g>
    </g>
    <g id="ytick_21">
     <g id="line2d_39">
      <g>
       <use style="stroke:#000000;stroke-width:0.8;" x="587.257573" xlink:href="#m91137f8614" y="190.767511"/>
      </g>
     </g>
     <g id="text_53">
      <!-- 12 -->
      <g transform="translate(594.257573 194.56673)scale(0.1 -0.1)">
       <use xlink:href="#DejaVuSans-49"/>
       <use x="63.623047" xlink:href="#DejaVuSans-50"/>
      </g>
     </g>
    </g>
    <g id="ytick_22">
     <g id="line2d_40">
      <g>
       <use style="stroke:#000000;stroke-width:0.8;" x="587.257573" xlink:href="#m91137f8614" y="150.679176"/>
      </g>
     </g>
     <g id="text_54">
      <!-- 16 -->
      <g transform="translate(594.257573 154.478394)scale(0.1 -0.1)">
       <use xlink:href="#DejaVuSans-49"/>
       <use x="63.623047" xlink:href="#DejaVuSans-54"/>
      </g>
     </g>
    </g>
    <g id="ytick_23">
     <g id="line2d_41">
      <g>
       <use style="stroke:#000000;stroke-width:0.8;" x="587.257573" xlink:href="#m91137f8614" y="110.59084"/>
      </g>
     </g>
     <g id="text_55">
      <!-- 20 -->
      <g transform="translate(594.257573 114.390059)scale(0.1 -0.1)">
       <use xlink:href="#DejaVuSans-50"/>
       <use x="63.623047" xlink:href="#DejaVuSans-48"/>
      </g>
     </g>
    </g>
    <g id="ytick_24">
     <g id="line2d_42">
      <g>
       <use style="stroke:#000000;stroke-width:0.8;" x="587.257573" xlink:href="#m91137f8614" y="70.502504"/>
      </g>
     </g>
     <g id="text_56">
      <!-- 24 -->
      <g transform="translate(594.257573 74.301723)scale(0.1 -0.1)">
       <use xlink:href="#DejaVuSans-50"/>
       <use x="63.623047" xlink:href="#DejaVuSans-52"/>
      </g>
     </g>
    </g>
    <g id="ytick_25">
     <g id="line2d_43">
      <g>
       <use style="stroke:#000000;stroke-width:0.8;" x="587.257573" xlink:href="#m91137f8614" y="30.414169"/>
      </g>
     </g>
     <g id="text_57">
      <!-- 28 -->
      <g transform="translate(594.257573 34.213388)scale(0.1 -0.1)">
       <use xlink:href="#DejaVuSans-50"/>
       <use x="63.623047" xlink:href="#DejaVuSans-56"/>
      </g>
     </g>
    </g>
   </g>
   <g id="LineCollection_23">
    <path clip-path="url(#pd6d2004d73)" d="M 559.997504 351.120854 
L 587.257573 351.120854 
" style="fill:none;stroke:#440154;stroke-width:1.5;"/>
    <path clip-path="url(#pd6d2004d73)" d="M 559.997504 311.032518 
L 587.257573 311.032518 
" style="fill:none;stroke:#472d7b;stroke-width:1.5;"/>
    <path clip-path="url(#pd6d2004d73)" d="M 559.997504 270.944183 
L 587.257573 270.944183 
" style="fill:none;stroke:#3b528b;stroke-width:1.5;"/>
    <path clip-path="url(#pd6d2004d73)" d="M 559.997504 230.855847 
L 587.257573 230.855847 
" style="fill:none;stroke:#2c728e;stroke-width:1.5;"/>
    <path clip-path="url(#pd6d2004d73)" d="M 559.997504 190.767511 
L 587.257573 190.767511 
" style="fill:none;stroke:#21918c;stroke-width:1.5;"/>
    <path clip-path="url(#pd6d2004d73)" d="M 559.997504 150.679176 
L 587.257573 150.679176 
" style="fill:none;stroke:#28ae80;stroke-width:1.5;"/>
    <path clip-path="url(#pd6d2004d73)" d="M 559.997504 110.59084 
L 587.257573 110.59084 
" style="fill:none;stroke:#5ec962;stroke-width:1.5;"/>
    <path clip-path="url(#pd6d2004d73)" d="M 559.997504 70.502504 
L 587.257573 70.502504 
" style="fill:none;stroke:#addc30;stroke-width:1.5;"/>
    <path clip-path="url(#pd6d2004d73)" d="M 559.997504 30.414169 
L 587.257573 30.414169 
" style="fill:none;stroke:#fde725;stroke-width:1.5;"/>
   </g>
   <g id="patch_13">
    <path d="M 559.997504 351.120854 
L 559.997504 311.032518 
L 559.997504 70.502504 
L 559.997504 30.414169 
L 587.257573 30.414169 
L 587.257573 70.502504 
L 587.257573 311.032518 
L 587.257573 351.120854 
z
" style="fill:none;stroke:#000000;stroke-linejoin:miter;stroke-width:0.8;"/>
   </g>
  </g>
  <g id="text_58">
   <!-- Bisect: Scale. min 0.668, max 1.360, average 1.000 -->
   <defs>
    <path d="M 19.671875 34.8125 
L 19.671875 8.109375 
L 35.5 8.109375 
Q 43.453125 8.109375 47.28125 11.40625 
Q 51.125 14.703125 51.125 21.484375 
Q 51.125 28.328125 47.28125 31.5625 
Q 43.453125 34.8125 35.5 34.8125 
z
M 19.671875 64.796875 
L 19.671875 42.828125 
L 34.28125 42.828125 
Q 41.5 42.828125 45.03125 45.53125 
Q 48.578125 48.25 48.578125 53.8125 
Q 48.578125 59.328125 45.03125 62.0625 
Q 41.5 64.796875 34.28125 64.796875 
z
M 9.8125 72.90625 
L 35.015625 72.90625 
Q 46.296875 72.90625 52.390625 68.21875 
Q 58.5 63.53125 58.5 54.890625 
Q 58.5 48.1875 55.375 44.234375 
Q 52.25 40.28125 46.1875 39.3125 
Q 53.46875 37.75 57.5 32.78125 
Q 61.53125 27.828125 61.53125 20.40625 
Q 61.53125 10.640625 54.890625 5.3125 
Q 48.25 0 35.984375 0 
L 9.8125 0 
z
" id="DejaVuSans-66"/>
    <path d="M 9.421875 54.6875 
L 18.40625 54.6875 
L 18.40625 0 
L 9.421875 0 
z
M 9.421875 75.984375 
L 18.40625 75.984375 
L 18.40625 64.59375 
L 9.421875 64.59375 
z
" id="DejaVuSans-105"/>
    <path d="M 44.28125 53.078125 
L 44.28125 44.578125 
Q 40.484375 46.53125 36.375 47.5 
Q 32.28125 48.484375 27.875 48.484375 
Q 21.1875 48.484375 17.84375 46.4375 
Q 14.5 44.390625 14.5 40.28125 
Q 14.5 37.15625 16.890625 35.375 
Q 19.28125 33.59375 26.515625 31.984375 
L 29.59375 31.296875 
Q 39.15625 29.25 43.1875 25.515625 
Q 47.21875 21.78125 47.21875 15.09375 
Q 47.21875 7.46875 41.1875 3.015625 
Q 35.15625 -1.421875 24.609375 -1.421875 
Q 20.21875 -1.421875 15.453125 -0.5625 
Q 10.6875 0.296875 5.421875 2 
L 5.421875 11.28125 
Q 10.40625 8.6875 15.234375 7.390625 
Q 20.0625 6.109375 24.8125 6.109375 
Q 31.15625 6.109375 34.5625 8.28125 
Q 37.984375 10.453125 37.984375 14.40625 
Q 37.984375 18.0625 35.515625 20.015625 
Q 33.0625 21.96875 24.703125 23.78125 
L 21.578125 24.515625 
Q 13.234375 26.265625 9.515625 29.90625 
Q 5.8125 33.546875 5.8125 39.890625 
Q 5.8125 47.609375 11.28125 51.796875 
Q 16.75 56 26.8125 56 
Q 31.78125 56 36.171875 55.265625 
Q 40.578125 54.546875 44.28125 53.078125 
z
" id="DejaVuSans-115"/>
    <path d="M 56.203125 29.59375 
L 56.203125 25.203125 
L 14.890625 25.203125 
Q 15.484375 15.921875 20.484375 11.0625 
Q 25.484375 6.203125 34.421875 6.203125 
Q 39.59375 6.203125 44.453125 7.46875 
Q 49.3125 8.734375 54.109375 11.28125 
L 54.109375 2.78125 
Q 49.265625 0.734375 44.1875 -0.34375 
Q 39.109375 -1.421875 33.890625 -1.421875 
Q 20.796875 -1.421875 13.15625 6.1875 
Q 5.515625 13.8125 5.515625 26.8125 
Q 5.515625 40.234375 12.765625 48.109375 
Q 20.015625 56 32.328125 56 
Q 43.359375 56 49.78125 48.890625 
Q 56.203125 41.796875 56.203125 29.59375 
z
M 47.21875 32.234375 
Q 47.125 39.59375 43.09375 43.984375 
Q 39.0625 48.390625 32.421875 48.390625 
Q 24.90625 48.390625 20.390625 44.140625 
Q 15.875 39.890625 15.1875 32.171875 
z
" id="DejaVuSans-101"/>
    <path d="M 48.78125 52.59375 
L 48.78125 44.1875 
Q 44.96875 46.296875 41.140625 47.34375 
Q 37.3125 48.390625 33.40625 48.390625 
Q 24.65625 48.390625 19.8125 42.84375 
Q 14.984375 37.3125 14.984375 27.296875 
Q 14.984375 17.28125 19.8125 11.734375 
Q 24.65625 6.203125 33.40625 6.203125 
Q 37.3125 6.203125 41.140625 7.25 
Q 44.96875 8.296875 48.78125 10.40625 
L 48.78125 2.09375 
Q 45.015625 0.34375 40.984375 -0.53125 
Q 36.96875 -1.421875 32.421875 -1.421875 
Q 20.0625 -1.421875 12.78125 6.34375 
Q 5.515625 14.109375 5.515625 27.296875 
Q 5.515625 40.671875 12.859375 48.328125 
Q 20.21875 56 33.015625 56 
Q 37.15625 56 41.109375 55.140625 
Q 45.0625 54.296875 48.78125 52.59375 
z
" id="DejaVuSans-99"/>
    <path d="M 18.3125 70.21875 
L 18.3125 54.6875 
L 36.8125 54.6875 
L 36.8125 47.703125 
L 18.3125 47.703125 
L 18.3125 18.015625 
Q 18.3125 11.328125 20.140625 9.421875 
Q 21.96875 7.515625 27.59375 7.515625 
L 36.8125 7.515625 
L 36.8125 0 
L 27.59375 0 
Q 17.1875 0 13.234375 3.875 
Q 9.28125 7.765625 9.28125 18.015625 
L 9.28125 47.703125 
L 2.6875 47.703125 
L 2.6875 54.6875 
L 9.28125 54.6875 
L 9.28125 70.21875 
z
" id="DejaVuSans-116"/>
    <path d="M 11.71875 12.40625 
L 22.015625 12.40625 
L 22.015625 0 
L 11.71875 0 
z
M 11.71875 51.703125 
L 22.015625 51.703125 
L 22.015625 39.3125 
L 11.71875 39.3125 
z
" id="DejaVuSans-58"/>
    <path id="DejaVuSans-32"/>
    <path d="M 53.515625 70.515625 
L 53.515625 60.890625 
Q 47.90625 63.578125 42.921875 64.890625 
Q 37.9375 66.21875 33.296875 66.21875 
Q 25.25 66.21875 20.875 63.09375 
Q 16.5 59.96875 16.5 54.203125 
Q 16.5 49.359375 19.40625 46.890625 
Q 22.3125 44.4375 30.421875 42.921875 
L 36.375 41.703125 
Q 47.40625 39.59375 52.65625 34.296875 
Q 57.90625 29 57.90625 20.125 
Q 57.90625 9.515625 50.796875 4.046875 
Q 43.703125 -1.421875 29.984375 -1.421875 
Q 24.8125 -1.421875 18.96875 -0.25 
Q 13.140625 0.921875 6.890625 3.21875 
L 6.890625 13.375 
Q 12.890625 10.015625 18.65625 8.296875 
Q 24.421875 6.59375 29.984375 6.59375 
Q 38.421875 6.59375 43.015625 9.90625 
Q 47.609375 13.234375 47.609375 19.390625 
Q 47.609375 24.75 44.3125 27.78125 
Q 41.015625 30.8125 33.5 32.328125 
L 27.484375 33.5 
Q 16.453125 35.6875 11.515625 40.375 
Q 6.59375 45.0625 6.59375 53.421875 
Q 6.59375 63.09375 13.40625 68.65625 
Q 20.21875 74.21875 32.171875 74.21875 
Q 37.3125 74.21875 42.625 73.28125 
Q 47.953125 72.359375 53.515625 70.515625 
z
" id="DejaVuSans-83"/>
    <path d="M 34.28125 27.484375 
Q 23.390625 27.484375 19.1875 25 
Q 14.984375 22.515625 14.984375 16.5 
Q 14.984375 11.71875 18.140625 8.90625 
Q 21.296875 6.109375 26.703125 6.109375 
Q 34.1875 6.109375 38.703125 11.40625 
Q 43.21875 16.703125 43.21875 25.484375 
L 43.21875 27.484375 
z
M 52.203125 31.203125 
L 52.203125 0 
L 43.21875 0 
L 43.21875 8.296875 
Q 40.140625 3.328125 35.546875 0.953125 
Q 30.953125 -1.421875 24.3125 -1.421875 
Q 15.921875 -1.421875 10.953125 3.296875 
Q 6 8.015625 6 15.921875 
Q 6 25.140625 12.171875 29.828125 
Q 18.359375 34.515625 30.609375 34.515625 
L 43.21875 34.515625 
L 43.21875 35.40625 
Q 43.21875 41.609375 39.140625 45 
Q 35.0625 48.390625 27.6875 48.390625 
Q 23 48.390625 18.546875 47.265625 
Q 14.109375 46.140625 10.015625 43.890625 
L 10.015625 52.203125 
Q 14.9375 54.109375 19.578125 55.046875 
Q 24.21875 56 28.609375 56 
Q 40.484375 56 46.34375 49.84375 
Q 52.203125 43.703125 52.203125 31.203125 
z
" id="DejaVuSans-97"/>
    <path d="M 9.421875 75.984375 
L 18.40625 75.984375 
L 18.40625 0 
L 9.421875 0 
z
" id="DejaVuSans-108"/>
    <path d="M 52 44.1875 
Q 55.375 50.25 60.0625 53.125 
Q 64.75 56 71.09375 56 
Q 79.640625 56 84.28125 50.015625 
Q 88.921875 44.046875 88.921875 33.015625 
L 88.921875 0 
L 79.890625 0 
L 79.890625 32.71875 
Q 79.890625 40.578125 77.09375 44.375 
Q 74.3125 48.1875 68.609375 48.1875 
Q 61.625 48.1875 57.5625 43.546875 
Q 53.515625 38.921875 53.515625 30.90625 
L 53.515625 0 
L 44.484375 0 
L 44.484375 32.71875 
Q 44.484375 40.625 41.703125 44.40625 
Q 38.921875 48.1875 33.109375 48.1875 
Q 26.21875 48.1875 22.15625 43.53125 
Q 18.109375 38.875 18.109375 30.90625 
L 18.109375 0 
L 9.078125 0 
L 9.078125 54.6875 
L 18.109375 54.6875 
L 18.109375 46.1875 
Q 21.1875 51.21875 25.484375 53.609375 
Q 29.78125 56 35.6875 56 
Q 41.65625 56 45.828125 52.96875 
Q 50 49.953125 52 44.1875 
z
" id="DejaVuSans-109"/>
    <path d="M 54.890625 33.015625 
L 54.890625 0 
L 45.90625 0 
L 45.90625 32.71875 
Q 45.90625 40.484375 42.875 44.328125 
Q 39.84375 48.1875 33.796875 48.1875 
Q 26.515625 48.1875 22.3125 43.546875 
Q 18.109375 38.921875 18.109375 30.90625 
L 18.109375 0 
L 9.078125 0 
L 9.078125 54.6875 
L 18.109375 54.6875 
L 18.109375 46.1875 
Q 21.34375 51.125 25.703125 53.5625 
Q 30.078125 56 35.796875 56 
Q 45.21875 56 50.046875 50.171875 
Q 54.890625 44.34375 54.890625 33.015625 
z
" id="DejaVuSans-110"/>
    <path d="M 11.71875 12.40625 
L 22.015625 12.40625 
L 22.015625 4 
L 14.015625 -11.625 
L 7.71875 -11.625 
L 11.71875 4 
z
" id="DejaVuSans-44"/>
    <path d="M 54.890625 54.6875 
L 35.109375 28.078125 
L 55.90625 0 
L 45.3125 0 
L 29.390625 21.484375 
L 13.484375 0 
L 2.875 0 
L 24.125 28.609375 
L 4.6875 54.6875 
L 15.28125 54.6875 
L 29.78125 35.203125 
L 44.28125 54.6875 
z
" id="DejaVuSans-120"/>
    <path d="M 2.984375 54.6875 
L 12.5 54.6875 
L 29.59375 8.796875 
L 46.6875 54.6875 
L 56.203125 54.6875 
L 35.6875 0 
L 23.484375 0 
z
" id="DejaVuSans-118"/>
    <path d="M 41.109375 46.296875 
Q 39.59375 47.171875 37.8125 47.578125 
Q 36.03125 48 33.890625 48 
Q 26.265625 48 22.1875 43.046875 
Q 18.109375 38.09375 18.109375 28.8125 
L 18.109375 0 
L 9.078125 0 
L 9.078125 54.6875 
L 18.109375 54.6875 
L 18.109375 46.1875 
Q 20.953125 51.171875 25.484375 53.578125 
Q 30.03125 56 36.53125 56 
Q 37.453125 56 38.578125 55.875 
Q 39.703125 55.765625 41.0625 55.515625 
z
" id="DejaVuSans-114"/>
    <path d="M 45.40625 27.984375 
Q 45.40625 37.75 41.375 43.109375 
Q 37.359375 48.484375 30.078125 48.484375 
Q 22.859375 48.484375 18.828125 43.109375 
Q 14.796875 37.75 14.796875 27.984375 
Q 14.796875 18.265625 18.828125 12.890625 
Q 22.859375 7.515625 30.078125 7.515625 
Q 37.359375 7.515625 41.375 12.890625 
Q 45.40625 18.265625 45.40625 27.984375 
z
M 54.390625 6.78125 
Q 54.390625 -7.171875 48.1875 -13.984375 
Q 42 -20.796875 29.203125 -20.796875 
Q 24.46875 -20.796875 20.265625 -20.09375 
Q 16.0625 -19.390625 12.109375 -17.921875 
L 12.109375 -9.1875 
Q 16.0625 -11.328125 19.921875 -12.34375 
Q 23.78125 -13.375 27.78125 -13.375 
Q 36.625 -13.375 41.015625 -8.765625 
Q 45.40625 -4.15625 45.40625 5.171875 
L 45.40625 9.625 
Q 42.625 4.78125 38.28125 2.390625 
Q 33.9375 0 27.875 0 
Q 17.828125 0 11.671875 7.65625 
Q 5.515625 15.328125 5.515625 27.984375 
Q 5.515625 40.671875 11.671875 48.328125 
Q 17.828125 56 27.875 56 
Q 33.9375 56 38.28125 53.609375 
Q 42.625 51.21875 45.40625 46.390625 
L 45.40625 54.6875 
L 54.390625 54.6875 
z
" id="DejaVuSans-103"/>
   </defs>
   <g transform="translate(150.032813 12.118365)scale(0.12 -0.12)">
    <use xlink:href="#DejaVuSans-66"/>
    <use x="68.603516" xlink:href="#DejaVuSans-105"/>
    <use x="96.386719" xlink:href="#DejaVuSans-115"/>
    <use x="148.486328" xlink:href="#DejaVuSans-101"/>
    <use x="210.009766" xlink:href="#DejaVuSans-99"/>
    <use x="264.990234" xlink:href="#DejaVuSans-116"/>
    <use x="304.199219" xlink:href="#DejaVuSans-58"/>
    <use x="337.890625" xlink:href="#DejaVuSans-32"/>
    <use x="369.677734" xlink:href="#DejaVuSans-83"/>
    <use x="433.154297" xlink:href="#DejaVuSans-99"/>
    <use x="488.134766" xlink:href="#DejaVuSans-97"/>
    <use x="549.414062" xlink:href="#DejaVuSans-108"/>
    <use x="577.197266" xlink:href="#DejaVuSans-101"/>
    <use x="638.720703" xlink:href="#DejaVuSans-46"/>
    <use x="670.507812" xlink:href="#DejaVuSans-32"/>
    <use x="702.294922" xlink:href="#DejaVuSans-109"/>
    <use x="799.707031" xlink:href="#DejaVuSans-105"/>
    <use x="827.490234" xlink:href="#DejaVuSans-110"/>
    <use x="890.869141" xlink:href="#DejaVuSans-32"/>
    <use x="922.65625" xlink:href="#DejaVuSans-48"/>
    <use x="986.279297" xlink:href="#DejaVuSans-46"/>
    <use x="1018.066406" xlink:href="#DejaVuSans-54"/>
    <use x="1081.689453" xlink:href="#DejaVuSans-54"/>
    <use x="1145.3125" xlink:href="#DejaVuSans-56"/>
    <use x="1208.935547" xlink:href="#DejaVuSans-44"/>
    <use x="1240.722656" xlink:href="#DejaVuSans-32"/>
    <use x="1272.509766" xlink:href="#DejaVuSans-109"/>
    <use x="1369.921875" xlink:href="#DejaVuSans-97"/>
    <use x="1431.201172" xlink:href="#DejaVuSans-120"/>
    <use x="1490.380859" xlink:href="#DejaVuSans-32"/>
    <use x="1522.167969" xlink:href="#DejaVuSans-49"/>
    <use x="1585.791016" xlink:href="#DejaVuSans-46"/>
    <use x="1617.578125" xlink:href="#DejaVuSans-51"/>
    <use x="1681.201172" xlink:href="#DejaVuSans-54"/>
    <use x="1744.824219" xlink:href="#DejaVuSans-48"/>
    <use x="1808.447266" xlink:href="#DejaVuSans-44"/>
    <use x="1840.234375" xlink:href="#DejaVuSans-32"/>
    <use x="1872.021484" xlink:href="#DejaVuSans-97"/>
    <use x="1933.300781" xlink:href="#DejaVuSans-118"/>
    <use x="1992.480469" xlink:href="#DejaVuSans-101"/>
    <use x="2054.003906" xlink:href="#DejaVuSans-114"/>
    <use x="2095.117188" xlink:href="#DejaVuSans-97"/>
    <use x="2156.396484" xlink:href="#DejaVuSans-103"/>
    <use x="2219.873047" xlink:href="#DejaVuSans-101"/>
    <use x="2281.396484" xlink:href="#DejaVuSans-32"/>
    <use x="2313.183594" xlink:href="#DejaVuSans-49"/>
    <use x="2376.806641" xlink:href="#DejaVuSans-46"/>
    <use x="2408.59375" xlink:href="#DejaVuSans-48"/>
    <use x="2472.216797" xlink:href="#DejaVuSans-48"/>
    <use x="2535.839844" xlink:href="#DejaVuSans-48"/>
   </g>
  </g>
 </g>
 <defs>
  <clipPath id="p2919fcff64">
   <rect height="216.178246" width="216.178246" x="31.104928" y="82.678388"/>
  </clipPath>
  <clipPath id="pa8b5a43271">
   <rect height="187.215853" width="216.178246" x="312.906868" y="97.159585"/>
  </clipPath>
  <clipPath id="pd6d2004d73">
   <rect height="320.706685" width="27.260068" x="559.997504" y="30.414169"/>
  </clipPath>
 </defs>
</svg>
